%
M48
M72
T01C0.01969
T02C0.02362
T03C0.03346
T04C0.04000
T05C0.04331
T06C0.04724
T07C0.05906
T08C0.07874
%
T01
X70028Y26825
X114028Y40825
X86028Y61825
X77028Y72825
X64028Y61825
X43028Y77825
X45028Y97825
X47028Y109825
X62028Y97825
X70028Y102825
X85028Y87825
X105028Y97825
X123278Y97825
X155778Y101575
X157028Y118075
X151028Y117825
X184902Y139856
X194902Y143856
X210902Y151856
X239902Y142856
X234028Y105325
X238028Y85825
X220028Y71825
X233028Y58825
X325264Y35476
X279028Y55825
X266028Y70825
X258028Y73825
X266028Y85825
X271028Y88825
X279028Y82825
X285028Y74825
X294028Y74825
X314028Y66825
X333028Y78825
X320028Y86825
X294028Y97825
X283028Y101825
X313028Y106825
X323028Y109825
X348028Y110825
X354528Y112825
X359528Y107825
X385778Y122825
X359528Y131575
X354528Y127825
X348278Y135825
X323028Y150825
X379028Y156825
X349778Y69825
X184028Y54825
X169028Y62825
X169028Y76825
X189528Y97825
X128278Y74075
X150028Y44825
X28028Y43825
X79028Y122825
X52028Y125825
T02
X362028Y46575
X367028Y107825
X42028Y142825
X174902Y121856
T03
X319724Y28230
X300630Y28230
T04
X380059Y75423
X370059Y75423
X370059Y85423
X380059Y85423
X380059Y95423
X370059Y95423
T05
X110571Y111093
X120413Y111093
X130256Y111093
X296713Y111093
X286870Y111093
X277028Y111093
T06
X97579Y20935
X97579Y44557
T07
X324252Y16419
X296102Y16419
T08
X304587Y138652
X269154Y138652
X102697Y138652
X138130Y138652
M30
