G75*
%MOIN*%
%OFA0B0*%
%FSLAX25Y25*%
%IPPOS*%
%LPD*%
%AMOC8*
5,1,8,0,0,1.08239X$1,22.5*
%
%ADD10C,0.00800*%
%ADD11C,0.00787*%
%ADD12OC8,0.07400*%
%ADD13C,0.06600*%
%ADD14R,0.12598X0.12598*%
%ADD15C,0.05020*%
%ADD16R,0.08858X0.08858*%
%ADD17C,0.00000*%
%ADD18C,0.01600*%
%ADD19C,0.03169*%
%ADD20C,0.01000*%
%ADD21C,0.03562*%
%ADD22R,0.03562X0.03562*%
D10*
X0016870Y0164242D02*
X0396791Y0164242D01*
D11*
X0030650Y0010698D02*
X0030743Y0010975D01*
X0030830Y0011254D01*
X0030910Y0011534D01*
X0030983Y0011817D01*
X0031049Y0012101D01*
X0031108Y0012387D01*
X0031161Y0012674D01*
X0031206Y0012963D01*
X0031244Y0013252D01*
X0031276Y0013542D01*
X0031300Y0013833D01*
X0031317Y0014125D01*
X0031327Y0014416D01*
X0031330Y0014708D01*
X0031326Y0015000D01*
X0031315Y0015292D01*
X0031296Y0015583D01*
X0031271Y0015874D01*
X0031238Y0016164D01*
X0031199Y0016453D01*
X0031152Y0016742D01*
X0031099Y0017029D01*
X0031039Y0017314D01*
X0030971Y0017598D01*
X0030897Y0017880D01*
X0030816Y0018161D01*
X0030728Y0018439D01*
X0030633Y0018715D01*
X0030532Y0018989D01*
X0030424Y0019260D01*
X0030310Y0019529D01*
X0030189Y0019795D01*
X0030061Y0020057D01*
X0029928Y0020317D01*
X0029788Y0020573D01*
X0029642Y0020826D01*
X0029489Y0021075D01*
X0029331Y0021320D01*
X0029167Y0021561D01*
X0028997Y0021799D01*
X0028821Y0022032D01*
X0028640Y0022261D01*
X0028453Y0022485D01*
X0028261Y0022705D01*
X0028063Y0022919D01*
X0027860Y0023130D01*
X0027653Y0023335D01*
X0027440Y0023535D01*
X0027223Y0023729D01*
X0027001Y0023919D01*
X0026774Y0024103D01*
X0026543Y0024281D01*
X0026308Y0024454D01*
X0026068Y0024621D01*
X0025825Y0024782D01*
X0025577Y0024937D01*
X0025327Y0025086D01*
X0025072Y0025229D01*
X0024814Y0025366D01*
X0024553Y0025497D01*
X0024289Y0025621D01*
X0024021Y0025738D01*
X0023752Y0025849D01*
X0023479Y0025954D01*
X0023204Y0026052D01*
X0022927Y0026143D01*
X0022647Y0026227D01*
X0022366Y0026304D01*
X0022082Y0026375D01*
X0021798Y0026439D01*
X0021511Y0026496D01*
X0021224Y0026546D01*
X0020935Y0026588D01*
X0020645Y0026624D01*
X0020355Y0026653D01*
X0020064Y0026675D01*
X0019772Y0026689D01*
X0019480Y0026697D01*
X0019188Y0026697D01*
X0018896Y0026691D01*
X0018605Y0026677D01*
X0018314Y0026656D01*
X0018023Y0026628D01*
X0017733Y0026593D01*
X0017444Y0026551D01*
X0017157Y0026502D01*
X0016870Y0026446D01*
X0016870Y0026447D02*
X0016870Y0164242D01*
X0121201Y0030384D02*
X0192028Y0043825D01*
X0192064Y0044119D01*
X0192108Y0044412D01*
X0192158Y0044704D01*
X0192216Y0044995D01*
X0192281Y0045284D01*
X0192353Y0045571D01*
X0192432Y0045857D01*
X0192518Y0046140D01*
X0192611Y0046421D01*
X0192711Y0046700D01*
X0192818Y0046977D01*
X0192931Y0047251D01*
X0193051Y0047521D01*
X0193178Y0047789D01*
X0193311Y0048054D01*
X0193451Y0048315D01*
X0193597Y0048573D01*
X0193750Y0048827D01*
X0193908Y0049077D01*
X0194073Y0049324D01*
X0194243Y0049566D01*
X0194420Y0049804D01*
X0194602Y0050038D01*
X0194790Y0050267D01*
X0194984Y0050491D01*
X0195183Y0050710D01*
X0195387Y0050925D01*
X0195597Y0051135D01*
X0195811Y0051339D01*
X0196031Y0051538D01*
X0196255Y0051731D01*
X0196484Y0051919D01*
X0196718Y0052102D01*
X0196956Y0052278D01*
X0197198Y0052449D01*
X0197444Y0052613D01*
X0197695Y0052772D01*
X0197949Y0052924D01*
X0198207Y0053070D01*
X0198468Y0053210D01*
X0198733Y0053343D01*
X0199001Y0053470D01*
X0199271Y0053590D01*
X0199545Y0053703D01*
X0199822Y0053810D01*
X0200101Y0053909D01*
X0200382Y0054002D01*
X0200666Y0054088D01*
X0200951Y0054167D01*
X0201239Y0054239D01*
X0201528Y0054304D01*
X0201818Y0054362D01*
X0202110Y0054413D01*
X0202403Y0054456D01*
X0202697Y0054492D01*
X0202992Y0054521D01*
X0203288Y0054543D01*
X0203584Y0054558D01*
X0203880Y0054565D01*
X0204176Y0054565D01*
X0204472Y0054558D01*
X0204768Y0054543D01*
X0205064Y0054521D01*
X0205359Y0054492D01*
X0205653Y0054456D01*
X0205946Y0054413D01*
X0206238Y0054362D01*
X0206528Y0054304D01*
X0206817Y0054239D01*
X0207105Y0054167D01*
X0207390Y0054088D01*
X0207674Y0054002D01*
X0207955Y0053909D01*
X0208234Y0053810D01*
X0208511Y0053703D01*
X0208785Y0053590D01*
X0209055Y0053470D01*
X0209323Y0053343D01*
X0209588Y0053210D01*
X0209849Y0053070D01*
X0210107Y0052924D01*
X0210361Y0052772D01*
X0210612Y0052613D01*
X0210858Y0052449D01*
X0211100Y0052278D01*
X0211338Y0052102D01*
X0211572Y0051919D01*
X0211801Y0051731D01*
X0212025Y0051538D01*
X0212245Y0051339D01*
X0212459Y0051135D01*
X0212669Y0050925D01*
X0212873Y0050710D01*
X0213072Y0050491D01*
X0213266Y0050267D01*
X0213454Y0050038D01*
X0213636Y0049804D01*
X0213813Y0049566D01*
X0213983Y0049324D01*
X0214148Y0049077D01*
X0214306Y0048827D01*
X0214459Y0048573D01*
X0214605Y0048315D01*
X0214745Y0048054D01*
X0214878Y0047789D01*
X0215005Y0047521D01*
X0215125Y0047251D01*
X0215238Y0046977D01*
X0215345Y0046700D01*
X0215445Y0046421D01*
X0215538Y0046140D01*
X0215624Y0045857D01*
X0215703Y0045571D01*
X0215775Y0045284D01*
X0215840Y0044995D01*
X0215898Y0044704D01*
X0215948Y0044412D01*
X0215992Y0044119D01*
X0216028Y0043825D01*
X0286555Y0030384D01*
X0286555Y0010699D01*
X0377106Y0010699D01*
X0377015Y0010978D01*
X0376930Y0011260D01*
X0376851Y0011544D01*
X0376780Y0011830D01*
X0376716Y0012117D01*
X0376659Y0012406D01*
X0376609Y0012696D01*
X0376566Y0012987D01*
X0376530Y0013279D01*
X0376501Y0013572D01*
X0376480Y0013865D01*
X0376465Y0014159D01*
X0376458Y0014454D01*
X0376458Y0014748D01*
X0376465Y0015042D01*
X0376479Y0015336D01*
X0376501Y0015630D01*
X0376529Y0015923D01*
X0376565Y0016215D01*
X0376608Y0016506D01*
X0376658Y0016796D01*
X0376714Y0017085D01*
X0376778Y0017372D01*
X0376849Y0017658D01*
X0376927Y0017942D01*
X0377012Y0018224D01*
X0377104Y0018503D01*
X0377202Y0018781D01*
X0377307Y0019056D01*
X0377419Y0019328D01*
X0377538Y0019597D01*
X0377662Y0019864D01*
X0377794Y0020127D01*
X0377932Y0020387D01*
X0378076Y0020644D01*
X0378226Y0020897D01*
X0378383Y0021146D01*
X0378545Y0021392D01*
X0378713Y0021633D01*
X0378888Y0021871D01*
X0379068Y0022103D01*
X0379253Y0022332D01*
X0379444Y0022556D01*
X0379641Y0022775D01*
X0379843Y0022989D01*
X0380050Y0023198D01*
X0380262Y0023403D01*
X0380479Y0023602D01*
X0380700Y0023795D01*
X0380927Y0023983D01*
X0381157Y0024166D01*
X0381393Y0024343D01*
X0381632Y0024514D01*
X0381876Y0024679D01*
X0382123Y0024838D01*
X0382375Y0024992D01*
X0382630Y0025139D01*
X0382888Y0025279D01*
X0383150Y0025414D01*
X0383415Y0025542D01*
X0383683Y0025663D01*
X0383954Y0025778D01*
X0384228Y0025886D01*
X0384504Y0025988D01*
X0384783Y0026083D01*
X0385064Y0026170D01*
X0385347Y0026252D01*
X0385632Y0026326D01*
X0385918Y0026393D01*
X0386206Y0026453D01*
X0386496Y0026506D01*
X0386787Y0026552D01*
X0387078Y0026591D01*
X0387371Y0026623D01*
X0387664Y0026648D01*
X0387958Y0026665D01*
X0388252Y0026676D01*
X0388547Y0026679D01*
X0388841Y0026675D01*
X0389135Y0026664D01*
X0389429Y0026646D01*
X0389722Y0026620D01*
X0390015Y0026588D01*
X0390306Y0026548D01*
X0390597Y0026501D01*
X0390886Y0026447D01*
X0390886Y0101250D01*
X0396791Y0101250D01*
X0396791Y0164242D01*
X0121201Y0030384D02*
X0121201Y0010699D01*
X0030650Y0010699D01*
D12*
X0370059Y0075423D03*
X0380059Y0075423D03*
X0380059Y0085423D03*
X0370059Y0085423D03*
X0370059Y0095423D03*
X0380059Y0095423D03*
D13*
X0296713Y0111093D03*
X0286870Y0111093D03*
X0277028Y0111093D03*
X0130256Y0111093D03*
X0120413Y0111093D03*
X0110571Y0111093D03*
D14*
X0102697Y0138652D03*
X0138130Y0138652D03*
X0269154Y0138652D03*
X0304587Y0138652D03*
D15*
X0300630Y0028230D03*
X0319724Y0028230D03*
D16*
X0324252Y0016419D03*
X0296102Y0016419D03*
D17*
X0095217Y0020935D02*
X0095219Y0021032D01*
X0095225Y0021129D01*
X0095235Y0021225D01*
X0095249Y0021321D01*
X0095267Y0021417D01*
X0095288Y0021511D01*
X0095314Y0021605D01*
X0095343Y0021697D01*
X0095377Y0021788D01*
X0095413Y0021878D01*
X0095454Y0021966D01*
X0095498Y0022052D01*
X0095546Y0022137D01*
X0095597Y0022219D01*
X0095651Y0022300D01*
X0095709Y0022378D01*
X0095770Y0022453D01*
X0095833Y0022526D01*
X0095900Y0022597D01*
X0095970Y0022664D01*
X0096042Y0022729D01*
X0096117Y0022790D01*
X0096195Y0022849D01*
X0096274Y0022904D01*
X0096356Y0022956D01*
X0096440Y0023004D01*
X0096526Y0023049D01*
X0096614Y0023091D01*
X0096703Y0023129D01*
X0096794Y0023163D01*
X0096886Y0023193D01*
X0096979Y0023220D01*
X0097074Y0023242D01*
X0097169Y0023261D01*
X0097265Y0023276D01*
X0097361Y0023287D01*
X0097458Y0023294D01*
X0097555Y0023297D01*
X0097652Y0023296D01*
X0097749Y0023291D01*
X0097845Y0023282D01*
X0097941Y0023269D01*
X0098037Y0023252D01*
X0098132Y0023231D01*
X0098225Y0023207D01*
X0098318Y0023178D01*
X0098410Y0023146D01*
X0098500Y0023110D01*
X0098588Y0023071D01*
X0098675Y0023027D01*
X0098760Y0022981D01*
X0098843Y0022930D01*
X0098924Y0022877D01*
X0099002Y0022820D01*
X0099079Y0022760D01*
X0099152Y0022697D01*
X0099223Y0022631D01*
X0099291Y0022562D01*
X0099357Y0022490D01*
X0099419Y0022416D01*
X0099478Y0022339D01*
X0099534Y0022260D01*
X0099587Y0022178D01*
X0099637Y0022095D01*
X0099682Y0022009D01*
X0099725Y0021922D01*
X0099764Y0021833D01*
X0099799Y0021743D01*
X0099830Y0021651D01*
X0099857Y0021558D01*
X0099881Y0021464D01*
X0099901Y0021369D01*
X0099917Y0021273D01*
X0099929Y0021177D01*
X0099937Y0021080D01*
X0099941Y0020983D01*
X0099941Y0020887D01*
X0099937Y0020790D01*
X0099929Y0020693D01*
X0099917Y0020597D01*
X0099901Y0020501D01*
X0099881Y0020406D01*
X0099857Y0020312D01*
X0099830Y0020219D01*
X0099799Y0020127D01*
X0099764Y0020037D01*
X0099725Y0019948D01*
X0099682Y0019861D01*
X0099637Y0019775D01*
X0099587Y0019692D01*
X0099534Y0019610D01*
X0099478Y0019531D01*
X0099419Y0019454D01*
X0099357Y0019380D01*
X0099291Y0019308D01*
X0099223Y0019239D01*
X0099152Y0019173D01*
X0099079Y0019110D01*
X0099002Y0019050D01*
X0098924Y0018993D01*
X0098843Y0018940D01*
X0098760Y0018889D01*
X0098675Y0018843D01*
X0098588Y0018799D01*
X0098500Y0018760D01*
X0098410Y0018724D01*
X0098318Y0018692D01*
X0098225Y0018663D01*
X0098132Y0018639D01*
X0098037Y0018618D01*
X0097941Y0018601D01*
X0097845Y0018588D01*
X0097749Y0018579D01*
X0097652Y0018574D01*
X0097555Y0018573D01*
X0097458Y0018576D01*
X0097361Y0018583D01*
X0097265Y0018594D01*
X0097169Y0018609D01*
X0097074Y0018628D01*
X0096979Y0018650D01*
X0096886Y0018677D01*
X0096794Y0018707D01*
X0096703Y0018741D01*
X0096614Y0018779D01*
X0096526Y0018821D01*
X0096440Y0018866D01*
X0096356Y0018914D01*
X0096274Y0018966D01*
X0096195Y0019021D01*
X0096117Y0019080D01*
X0096042Y0019141D01*
X0095970Y0019206D01*
X0095900Y0019273D01*
X0095833Y0019344D01*
X0095770Y0019417D01*
X0095709Y0019492D01*
X0095651Y0019570D01*
X0095597Y0019651D01*
X0095546Y0019733D01*
X0095498Y0019818D01*
X0095454Y0019904D01*
X0095413Y0019992D01*
X0095377Y0020082D01*
X0095343Y0020173D01*
X0095314Y0020265D01*
X0095288Y0020359D01*
X0095267Y0020453D01*
X0095249Y0020549D01*
X0095235Y0020645D01*
X0095225Y0020741D01*
X0095219Y0020838D01*
X0095217Y0020935D01*
X0095217Y0044557D02*
X0095219Y0044654D01*
X0095225Y0044751D01*
X0095235Y0044847D01*
X0095249Y0044943D01*
X0095267Y0045039D01*
X0095288Y0045133D01*
X0095314Y0045227D01*
X0095343Y0045319D01*
X0095377Y0045410D01*
X0095413Y0045500D01*
X0095454Y0045588D01*
X0095498Y0045674D01*
X0095546Y0045759D01*
X0095597Y0045841D01*
X0095651Y0045922D01*
X0095709Y0046000D01*
X0095770Y0046075D01*
X0095833Y0046148D01*
X0095900Y0046219D01*
X0095970Y0046286D01*
X0096042Y0046351D01*
X0096117Y0046412D01*
X0096195Y0046471D01*
X0096274Y0046526D01*
X0096356Y0046578D01*
X0096440Y0046626D01*
X0096526Y0046671D01*
X0096614Y0046713D01*
X0096703Y0046751D01*
X0096794Y0046785D01*
X0096886Y0046815D01*
X0096979Y0046842D01*
X0097074Y0046864D01*
X0097169Y0046883D01*
X0097265Y0046898D01*
X0097361Y0046909D01*
X0097458Y0046916D01*
X0097555Y0046919D01*
X0097652Y0046918D01*
X0097749Y0046913D01*
X0097845Y0046904D01*
X0097941Y0046891D01*
X0098037Y0046874D01*
X0098132Y0046853D01*
X0098225Y0046829D01*
X0098318Y0046800D01*
X0098410Y0046768D01*
X0098500Y0046732D01*
X0098588Y0046693D01*
X0098675Y0046649D01*
X0098760Y0046603D01*
X0098843Y0046552D01*
X0098924Y0046499D01*
X0099002Y0046442D01*
X0099079Y0046382D01*
X0099152Y0046319D01*
X0099223Y0046253D01*
X0099291Y0046184D01*
X0099357Y0046112D01*
X0099419Y0046038D01*
X0099478Y0045961D01*
X0099534Y0045882D01*
X0099587Y0045800D01*
X0099637Y0045717D01*
X0099682Y0045631D01*
X0099725Y0045544D01*
X0099764Y0045455D01*
X0099799Y0045365D01*
X0099830Y0045273D01*
X0099857Y0045180D01*
X0099881Y0045086D01*
X0099901Y0044991D01*
X0099917Y0044895D01*
X0099929Y0044799D01*
X0099937Y0044702D01*
X0099941Y0044605D01*
X0099941Y0044509D01*
X0099937Y0044412D01*
X0099929Y0044315D01*
X0099917Y0044219D01*
X0099901Y0044123D01*
X0099881Y0044028D01*
X0099857Y0043934D01*
X0099830Y0043841D01*
X0099799Y0043749D01*
X0099764Y0043659D01*
X0099725Y0043570D01*
X0099682Y0043483D01*
X0099637Y0043397D01*
X0099587Y0043314D01*
X0099534Y0043232D01*
X0099478Y0043153D01*
X0099419Y0043076D01*
X0099357Y0043002D01*
X0099291Y0042930D01*
X0099223Y0042861D01*
X0099152Y0042795D01*
X0099079Y0042732D01*
X0099002Y0042672D01*
X0098924Y0042615D01*
X0098843Y0042562D01*
X0098760Y0042511D01*
X0098675Y0042465D01*
X0098588Y0042421D01*
X0098500Y0042382D01*
X0098410Y0042346D01*
X0098318Y0042314D01*
X0098225Y0042285D01*
X0098132Y0042261D01*
X0098037Y0042240D01*
X0097941Y0042223D01*
X0097845Y0042210D01*
X0097749Y0042201D01*
X0097652Y0042196D01*
X0097555Y0042195D01*
X0097458Y0042198D01*
X0097361Y0042205D01*
X0097265Y0042216D01*
X0097169Y0042231D01*
X0097074Y0042250D01*
X0096979Y0042272D01*
X0096886Y0042299D01*
X0096794Y0042329D01*
X0096703Y0042363D01*
X0096614Y0042401D01*
X0096526Y0042443D01*
X0096440Y0042488D01*
X0096356Y0042536D01*
X0096274Y0042588D01*
X0096195Y0042643D01*
X0096117Y0042702D01*
X0096042Y0042763D01*
X0095970Y0042828D01*
X0095900Y0042895D01*
X0095833Y0042966D01*
X0095770Y0043039D01*
X0095709Y0043114D01*
X0095651Y0043192D01*
X0095597Y0043273D01*
X0095546Y0043355D01*
X0095498Y0043440D01*
X0095454Y0043526D01*
X0095413Y0043614D01*
X0095377Y0043704D01*
X0095343Y0043795D01*
X0095314Y0043887D01*
X0095288Y0043981D01*
X0095267Y0044075D01*
X0095249Y0044171D01*
X0095235Y0044267D01*
X0095225Y0044363D01*
X0095219Y0044460D01*
X0095217Y0044557D01*
D18*
X0093417Y0044386D02*
X0019064Y0044386D01*
X0019064Y0042788D02*
X0093807Y0042788D01*
X0094050Y0042199D02*
X0095221Y0041029D01*
X0096751Y0040395D01*
X0098407Y0040395D01*
X0099936Y0041029D01*
X0101107Y0042199D01*
X0101741Y0043729D01*
X0101741Y0045385D01*
X0101107Y0046915D01*
X0099936Y0048086D01*
X0098407Y0048719D01*
X0096751Y0048719D01*
X0095221Y0048086D01*
X0094050Y0046915D01*
X0093417Y0045385D01*
X0093417Y0043729D01*
X0094050Y0042199D01*
X0095061Y0041189D02*
X0019064Y0041189D01*
X0019064Y0039591D02*
X0111309Y0039591D01*
X0111498Y0039134D02*
X0112337Y0038295D01*
X0113434Y0037841D01*
X0114621Y0037841D01*
X0115718Y0038295D01*
X0116348Y0038925D01*
X0119815Y0038925D01*
X0122815Y0041925D01*
X0149231Y0041925D01*
X0149434Y0041841D01*
X0150621Y0041841D01*
X0151718Y0042295D01*
X0152557Y0043134D01*
X0153012Y0044231D01*
X0153012Y0045418D01*
X0152557Y0046515D01*
X0151718Y0047355D01*
X0150621Y0047809D01*
X0149434Y0047809D01*
X0148337Y0047355D01*
X0147498Y0046515D01*
X0147170Y0045725D01*
X0121241Y0045725D01*
X0120128Y0044612D01*
X0118241Y0042725D01*
X0116348Y0042725D01*
X0115718Y0043355D01*
X0114621Y0043809D01*
X0113434Y0043809D01*
X0112337Y0043355D01*
X0111498Y0042515D01*
X0111043Y0041418D01*
X0111043Y0040231D01*
X0111498Y0039134D01*
X0113068Y0037992D02*
X0019064Y0037992D01*
X0019064Y0036394D02*
X0141103Y0036394D01*
X0149526Y0037992D02*
X0114987Y0037992D01*
X0120480Y0039591D02*
X0157949Y0039591D01*
X0152211Y0042788D02*
X0174796Y0042788D01*
X0183219Y0044386D02*
X0153012Y0044386D01*
X0152777Y0045985D02*
X0190060Y0045985D01*
X0190079Y0046152D02*
X0190026Y0045678D01*
X0130181Y0034321D01*
X0121201Y0034321D01*
X0121201Y0032617D01*
X0120994Y0032578D01*
X0120292Y0032578D01*
X0120128Y0032413D01*
X0119899Y0032370D01*
X0119504Y0031789D01*
X0119007Y0031293D01*
X0119007Y0031060D01*
X0118876Y0030868D01*
X0119007Y0030178D01*
X0119007Y0012893D01*
X0033468Y0012893D01*
X0033593Y0016331D01*
X0032457Y0020503D01*
X0030131Y0024148D01*
X0026827Y0026936D01*
X0022843Y0028616D01*
X0019064Y0028984D01*
X0019064Y0162042D01*
X0394598Y0162042D01*
X0394598Y0103444D01*
X0389977Y0103444D01*
X0388692Y0102159D01*
X0388692Y0100341D01*
X0388692Y0028965D01*
X0384920Y0028575D01*
X0384920Y0028575D01*
X0380959Y0026887D01*
X0377672Y0024107D01*
X0377672Y0024107D01*
X0377672Y0024107D01*
X0375352Y0020480D01*
X0375352Y0020480D01*
X0374205Y0016330D01*
X0374205Y0016330D01*
X0374308Y0012893D01*
X0330081Y0012893D01*
X0330081Y0021428D01*
X0329261Y0022248D01*
X0319243Y0022248D01*
X0318423Y0021428D01*
X0318423Y0012893D01*
X0301931Y0012893D01*
X0301931Y0021428D01*
X0301111Y0022248D01*
X0291093Y0022248D01*
X0290273Y0021428D01*
X0290273Y0012893D01*
X0288749Y0012893D01*
X0288749Y0030177D01*
X0288880Y0030866D01*
X0288749Y0031059D01*
X0288749Y0031293D01*
X0288253Y0031789D01*
X0287858Y0032369D01*
X0287629Y0032412D01*
X0287464Y0032578D01*
X0286762Y0032578D01*
X0286555Y0032617D01*
X0286555Y0034321D01*
X0277615Y0034321D01*
X0218029Y0045677D01*
X0217976Y0046152D01*
X0217976Y0046152D01*
X0216332Y0050013D01*
X0216332Y0050013D01*
X0213645Y0053237D01*
X0210145Y0055551D01*
X0210145Y0055551D01*
X0206126Y0056759D01*
X0201929Y0056759D01*
X0197911Y0055551D01*
X0194410Y0053237D01*
X0191723Y0050013D01*
X0190079Y0046152D01*
X0190688Y0047583D02*
X0151167Y0047583D01*
X0148889Y0047583D02*
X0100439Y0047583D01*
X0101493Y0045985D02*
X0147278Y0045985D01*
X0132679Y0034795D02*
X0019064Y0034795D01*
X0019064Y0033197D02*
X0121201Y0033197D01*
X0119313Y0031598D02*
X0019064Y0031598D01*
X0019064Y0029999D02*
X0119007Y0029999D01*
X0119007Y0028401D02*
X0023353Y0028401D01*
X0022843Y0028616D02*
X0022843Y0028616D01*
X0026827Y0026936D02*
X0026827Y0026936D01*
X0026986Y0026802D02*
X0119007Y0026802D01*
X0119007Y0025204D02*
X0028880Y0025204D01*
X0030131Y0024148D02*
X0030131Y0024148D01*
X0030477Y0023605D02*
X0094363Y0023605D01*
X0094050Y0023293D02*
X0093417Y0021763D01*
X0093417Y0020107D01*
X0094050Y0018577D01*
X0095221Y0017406D01*
X0096751Y0016773D01*
X0098407Y0016773D01*
X0099936Y0017406D01*
X0101107Y0018577D01*
X0101741Y0020107D01*
X0101741Y0021763D01*
X0101107Y0023293D01*
X0099936Y0024464D01*
X0098407Y0025097D01*
X0096751Y0025097D01*
X0095221Y0024464D01*
X0094050Y0023293D01*
X0093518Y0022007D02*
X0031497Y0022007D01*
X0032457Y0020503D02*
X0032457Y0020503D01*
X0032482Y0020408D02*
X0093417Y0020408D01*
X0093954Y0018810D02*
X0032918Y0018810D01*
X0033353Y0017211D02*
X0095692Y0017211D01*
X0099465Y0017211D02*
X0119007Y0017211D01*
X0119007Y0015613D02*
X0033567Y0015613D01*
X0033593Y0016331D02*
X0033593Y0016331D01*
X0033509Y0014014D02*
X0119007Y0014014D01*
X0119007Y0018810D02*
X0101204Y0018810D01*
X0101741Y0020408D02*
X0119007Y0020408D01*
X0119007Y0022007D02*
X0101640Y0022007D01*
X0100795Y0023605D02*
X0119007Y0023605D01*
X0122079Y0041189D02*
X0166373Y0041189D01*
X0181498Y0053134D02*
X0182337Y0052295D01*
X0183434Y0051841D01*
X0184621Y0051841D01*
X0185718Y0052295D01*
X0186557Y0053134D01*
X0187012Y0054231D01*
X0187012Y0055418D01*
X0186557Y0056515D01*
X0185718Y0057355D01*
X0184621Y0057809D01*
X0183730Y0057809D01*
X0180815Y0060725D01*
X0171148Y0060725D01*
X0171557Y0061134D01*
X0172012Y0062231D01*
X0172012Y0063418D01*
X0171557Y0064515D01*
X0170928Y0065145D01*
X0170928Y0074504D01*
X0171557Y0075134D01*
X0172012Y0076231D01*
X0172012Y0077418D01*
X0171557Y0078515D01*
X0170718Y0079355D01*
X0169621Y0079809D01*
X0168434Y0079809D01*
X0167337Y0079355D01*
X0166498Y0078515D01*
X0166043Y0077418D01*
X0166043Y0076231D01*
X0166498Y0075134D01*
X0167128Y0074504D01*
X0167128Y0065145D01*
X0166498Y0064515D01*
X0166043Y0063418D01*
X0166043Y0062231D01*
X0166498Y0061134D01*
X0166907Y0060725D01*
X0136815Y0060725D01*
X0130178Y0067362D01*
X0130178Y0071754D01*
X0130807Y0072384D01*
X0131262Y0073481D01*
X0131262Y0074668D01*
X0130807Y0075765D01*
X0129968Y0076605D01*
X0128871Y0077059D01*
X0127684Y0077059D01*
X0126587Y0076605D01*
X0125748Y0075765D01*
X0125293Y0074668D01*
X0125293Y0073481D01*
X0125748Y0072384D01*
X0126378Y0071754D01*
X0126378Y0065788D01*
X0134128Y0058038D01*
X0135241Y0056925D01*
X0179241Y0056925D01*
X0181043Y0055122D01*
X0181043Y0054231D01*
X0181498Y0053134D01*
X0181149Y0053977D02*
X0019064Y0053977D01*
X0019064Y0052379D02*
X0182253Y0052379D01*
X0185802Y0052379D02*
X0193694Y0052379D01*
X0194410Y0053237D02*
X0194410Y0053237D01*
X0195529Y0053977D02*
X0186907Y0053977D01*
X0186947Y0055576D02*
X0197992Y0055576D01*
X0197911Y0055551D02*
X0197911Y0055551D01*
X0192362Y0050780D02*
X0019064Y0050780D01*
X0019064Y0049182D02*
X0191369Y0049182D01*
X0191723Y0050013D02*
X0191723Y0050013D01*
X0180590Y0055576D02*
X0019064Y0055576D01*
X0019064Y0057174D02*
X0134991Y0057174D01*
X0133393Y0058773D02*
X0019064Y0058773D01*
X0019064Y0060371D02*
X0061400Y0060371D01*
X0061498Y0060134D02*
X0062337Y0059295D01*
X0063434Y0058841D01*
X0064621Y0058841D01*
X0065718Y0059295D01*
X0066348Y0059925D01*
X0083707Y0059925D01*
X0084337Y0059295D01*
X0085434Y0058841D01*
X0086621Y0058841D01*
X0087718Y0059295D01*
X0088557Y0060134D01*
X0089012Y0061231D01*
X0089012Y0062418D01*
X0088557Y0063515D01*
X0087718Y0064355D01*
X0086621Y0064809D01*
X0085434Y0064809D01*
X0084337Y0064355D01*
X0083707Y0063725D01*
X0066348Y0063725D01*
X0065718Y0064355D01*
X0064621Y0064809D01*
X0063434Y0064809D01*
X0062337Y0064355D01*
X0061498Y0063515D01*
X0061043Y0062418D01*
X0061043Y0061231D01*
X0061498Y0060134D01*
X0061043Y0061970D02*
X0019064Y0061970D01*
X0019064Y0063568D02*
X0061551Y0063568D01*
X0045348Y0075925D02*
X0119815Y0075925D01*
X0124815Y0080925D01*
X0177241Y0080925D01*
X0192128Y0066038D01*
X0193241Y0064925D01*
X0211241Y0064925D01*
X0218128Y0058038D01*
X0219241Y0056925D01*
X0230707Y0056925D01*
X0231337Y0056295D01*
X0232434Y0055841D01*
X0233621Y0055841D01*
X0234718Y0056295D01*
X0235557Y0057134D01*
X0236012Y0058231D01*
X0236012Y0059418D01*
X0235557Y0060515D01*
X0234718Y0061355D01*
X0233621Y0061809D01*
X0232434Y0061809D01*
X0231337Y0061355D01*
X0230707Y0060725D01*
X0220815Y0060725D01*
X0212815Y0068725D01*
X0194815Y0068725D01*
X0179928Y0083612D01*
X0179928Y0112139D01*
X0178815Y0113252D01*
X0178815Y0113252D01*
X0176250Y0115817D01*
X0176250Y0118675D01*
X0177263Y0118675D01*
X0178083Y0119495D01*
X0178083Y0124217D01*
X0177263Y0125037D01*
X0172541Y0125037D01*
X0171720Y0124217D01*
X0171720Y0119495D01*
X0172450Y0118765D01*
X0172450Y0114243D01*
X0173563Y0113130D01*
X0176128Y0110565D01*
X0176128Y0084725D01*
X0123241Y0084725D01*
X0122128Y0083612D01*
X0118241Y0079725D01*
X0045348Y0079725D01*
X0044718Y0080355D01*
X0043621Y0080809D01*
X0042434Y0080809D01*
X0041337Y0080355D01*
X0040498Y0079515D01*
X0040043Y0078418D01*
X0040043Y0077231D01*
X0040498Y0076134D01*
X0041337Y0075295D01*
X0042434Y0074841D01*
X0043621Y0074841D01*
X0044718Y0075295D01*
X0045348Y0075925D01*
X0040406Y0076356D02*
X0019064Y0076356D01*
X0019064Y0074758D02*
X0125330Y0074758D01*
X0125427Y0073159D02*
X0019064Y0073159D01*
X0019064Y0071561D02*
X0126378Y0071561D01*
X0126378Y0069962D02*
X0019064Y0069962D01*
X0019064Y0068364D02*
X0126378Y0068364D01*
X0126378Y0066765D02*
X0019064Y0066765D01*
X0019064Y0065167D02*
X0126999Y0065167D01*
X0128597Y0063568D02*
X0088504Y0063568D01*
X0089012Y0061970D02*
X0130196Y0061970D01*
X0131794Y0060371D02*
X0088656Y0060371D01*
X0094719Y0047583D02*
X0019064Y0047583D01*
X0019064Y0045985D02*
X0093665Y0045985D01*
X0100097Y0041189D02*
X0111043Y0041189D01*
X0111770Y0042788D02*
X0101351Y0042788D01*
X0101741Y0044386D02*
X0119902Y0044386D01*
X0118303Y0042788D02*
X0116285Y0042788D01*
X0135570Y0061970D02*
X0166152Y0061970D01*
X0166105Y0063568D02*
X0133971Y0063568D01*
X0132373Y0065167D02*
X0167128Y0065167D01*
X0167128Y0066765D02*
X0130774Y0066765D01*
X0130178Y0068364D02*
X0167128Y0068364D01*
X0167128Y0069962D02*
X0130178Y0069962D01*
X0130178Y0071561D02*
X0167128Y0071561D01*
X0167128Y0073159D02*
X0131128Y0073159D01*
X0131225Y0074758D02*
X0166874Y0074758D01*
X0166043Y0076356D02*
X0130216Y0076356D01*
X0126339Y0076356D02*
X0120246Y0076356D01*
X0121845Y0077955D02*
X0166266Y0077955D01*
X0167817Y0079553D02*
X0123443Y0079553D01*
X0121266Y0082750D02*
X0019064Y0082750D01*
X0019064Y0081152D02*
X0119668Y0081152D01*
X0122865Y0084349D02*
X0019064Y0084349D01*
X0019064Y0085947D02*
X0082685Y0085947D01*
X0082498Y0086134D02*
X0083337Y0085295D01*
X0084434Y0084841D01*
X0085621Y0084841D01*
X0086718Y0085295D01*
X0087348Y0085925D01*
X0142815Y0085925D01*
X0155480Y0098591D01*
X0156371Y0098591D01*
X0157468Y0099045D01*
X0158307Y0099884D01*
X0158762Y0100981D01*
X0158762Y0102168D01*
X0158307Y0103265D01*
X0157468Y0104105D01*
X0156371Y0104559D01*
X0155184Y0104559D01*
X0154087Y0104105D01*
X0153248Y0103265D01*
X0152793Y0102168D01*
X0152793Y0101278D01*
X0141241Y0089725D01*
X0087348Y0089725D01*
X0086718Y0090355D01*
X0085621Y0090809D01*
X0084434Y0090809D01*
X0083337Y0090355D01*
X0082498Y0089515D01*
X0082043Y0088418D01*
X0082043Y0087231D01*
X0082498Y0086134D01*
X0082043Y0087546D02*
X0019064Y0087546D01*
X0019064Y0089144D02*
X0082344Y0089144D01*
X0084274Y0090743D02*
X0019064Y0090743D01*
X0019064Y0092341D02*
X0143857Y0092341D01*
X0142259Y0090743D02*
X0085781Y0090743D01*
X0072557Y0101134D02*
X0073012Y0102231D01*
X0073012Y0103418D01*
X0072557Y0104515D01*
X0071718Y0105355D01*
X0070621Y0105809D01*
X0069434Y0105809D01*
X0068337Y0105355D01*
X0068007Y0105025D01*
X0047939Y0105025D01*
X0045903Y0107060D01*
X0046434Y0106841D01*
X0047621Y0106841D01*
X0048718Y0107295D01*
X0049348Y0107925D01*
X0094241Y0107925D01*
X0100128Y0102038D01*
X0101241Y0100925D01*
X0136815Y0100925D01*
X0150730Y0114841D01*
X0151621Y0114841D01*
X0152718Y0115295D01*
X0153557Y0116134D01*
X0154012Y0117231D01*
X0154012Y0118418D01*
X0153557Y0119515D01*
X0152718Y0120355D01*
X0151621Y0120809D01*
X0150434Y0120809D01*
X0149337Y0120355D01*
X0148498Y0119515D01*
X0148043Y0118418D01*
X0148043Y0117528D01*
X0135241Y0104725D01*
X0102815Y0104725D01*
X0095815Y0111725D01*
X0049348Y0111725D01*
X0048718Y0112355D01*
X0047621Y0112809D01*
X0046434Y0112809D01*
X0045337Y0112355D01*
X0044498Y0111515D01*
X0044228Y0110863D01*
X0044228Y0139644D01*
X0044389Y0139644D01*
X0045209Y0140464D01*
X0045209Y0145186D01*
X0044389Y0146006D01*
X0039667Y0146006D01*
X0038846Y0145186D01*
X0038846Y0140464D01*
X0039667Y0139644D01*
X0039828Y0139644D01*
X0039828Y0106914D01*
X0041116Y0105625D01*
X0046116Y0100625D01*
X0060989Y0100625D01*
X0060337Y0100355D01*
X0059707Y0099725D01*
X0047348Y0099725D01*
X0046718Y0100355D01*
X0045621Y0100809D01*
X0044434Y0100809D01*
X0043337Y0100355D01*
X0042498Y0099515D01*
X0042043Y0098418D01*
X0042043Y0097231D01*
X0042498Y0096134D01*
X0043337Y0095295D01*
X0044434Y0094841D01*
X0045621Y0094841D01*
X0046718Y0095295D01*
X0047348Y0095925D01*
X0059707Y0095925D01*
X0060337Y0095295D01*
X0061434Y0094841D01*
X0062621Y0094841D01*
X0063718Y0095295D01*
X0064557Y0096134D01*
X0065012Y0097231D01*
X0065012Y0098418D01*
X0064557Y0099515D01*
X0063718Y0100355D01*
X0063066Y0100625D01*
X0068007Y0100625D01*
X0068337Y0100295D01*
X0069434Y0099841D01*
X0070621Y0099841D01*
X0071718Y0100295D01*
X0072557Y0101134D01*
X0072888Y0101933D02*
X0100233Y0101933D01*
X0098634Y0103531D02*
X0072965Y0103531D01*
X0071943Y0105130D02*
X0097036Y0105130D01*
X0095437Y0106728D02*
X0046236Y0106728D01*
X0047834Y0105130D02*
X0068112Y0105130D01*
X0070028Y0102825D02*
X0047028Y0102825D01*
X0042028Y0107825D01*
X0042028Y0142825D01*
X0045209Y0143494D02*
X0094998Y0143494D01*
X0094998Y0145092D02*
X0045209Y0145092D01*
X0045209Y0141895D02*
X0094998Y0141895D01*
X0094998Y0140297D02*
X0045042Y0140297D01*
X0044228Y0138698D02*
X0094998Y0138698D01*
X0094998Y0137100D02*
X0044228Y0137100D01*
X0044228Y0135501D02*
X0094998Y0135501D01*
X0094998Y0133903D02*
X0044228Y0133903D01*
X0044228Y0132304D02*
X0094998Y0132304D01*
X0094998Y0131772D02*
X0095818Y0130952D01*
X0109576Y0130952D01*
X0110396Y0131772D01*
X0110396Y0145531D01*
X0109576Y0146351D01*
X0095818Y0146351D01*
X0094998Y0145531D01*
X0094998Y0131772D01*
X0110396Y0132304D02*
X0130431Y0132304D01*
X0130431Y0131772D02*
X0131251Y0130952D01*
X0145009Y0130952D01*
X0145829Y0131772D01*
X0145829Y0145531D01*
X0145009Y0146351D01*
X0131251Y0146351D01*
X0130431Y0145531D01*
X0130431Y0131772D01*
X0130431Y0133903D02*
X0110396Y0133903D01*
X0110396Y0135501D02*
X0130431Y0135501D01*
X0130431Y0137100D02*
X0110396Y0137100D01*
X0110396Y0138698D02*
X0130431Y0138698D01*
X0130431Y0140297D02*
X0110396Y0140297D01*
X0110396Y0141895D02*
X0130431Y0141895D01*
X0130431Y0143494D02*
X0110396Y0143494D01*
X0110396Y0145092D02*
X0130431Y0145092D01*
X0145829Y0145092D02*
X0237917Y0145092D01*
X0238211Y0145386D02*
X0237372Y0144547D01*
X0236917Y0143450D01*
X0236917Y0142559D01*
X0236115Y0141756D01*
X0187222Y0141756D01*
X0186592Y0142386D01*
X0185495Y0142841D01*
X0184308Y0142841D01*
X0183211Y0142386D01*
X0182372Y0141547D01*
X0181917Y0140450D01*
X0181917Y0139263D01*
X0182372Y0138166D01*
X0183211Y0137326D01*
X0184308Y0136872D01*
X0185495Y0136872D01*
X0186592Y0137326D01*
X0187222Y0137956D01*
X0237689Y0137956D01*
X0239604Y0139872D01*
X0240495Y0139872D01*
X0241592Y0140326D01*
X0242431Y0141166D01*
X0242886Y0142263D01*
X0242886Y0143450D01*
X0242431Y0144547D01*
X0241592Y0145386D01*
X0240495Y0145841D01*
X0239308Y0145841D01*
X0238211Y0145386D01*
X0236936Y0143494D02*
X0145829Y0143494D01*
X0145829Y0141895D02*
X0182720Y0141895D01*
X0181917Y0140297D02*
X0145829Y0140297D01*
X0145829Y0138698D02*
X0182151Y0138698D01*
X0183758Y0137100D02*
X0145829Y0137100D01*
X0145829Y0135501D02*
X0261454Y0135501D01*
X0261454Y0133903D02*
X0145829Y0133903D01*
X0145829Y0132304D02*
X0261454Y0132304D01*
X0261454Y0131772D02*
X0262274Y0130952D01*
X0276033Y0130952D01*
X0276853Y0131772D01*
X0276853Y0145531D01*
X0276033Y0146351D01*
X0262274Y0146351D01*
X0261454Y0145531D01*
X0261454Y0131772D01*
X0261454Y0137100D02*
X0186045Y0137100D01*
X0187083Y0141895D02*
X0236254Y0141895D01*
X0238431Y0138698D02*
X0261454Y0138698D01*
X0261454Y0140297D02*
X0241521Y0140297D01*
X0242734Y0141895D02*
X0261454Y0141895D01*
X0261454Y0143494D02*
X0242868Y0143494D01*
X0241886Y0145092D02*
X0261454Y0145092D01*
X0276853Y0145092D02*
X0296887Y0145092D01*
X0296887Y0145531D02*
X0296887Y0131772D01*
X0297707Y0130952D01*
X0311466Y0130952D01*
X0312286Y0131772D01*
X0312286Y0145531D01*
X0311466Y0146351D01*
X0297707Y0146351D01*
X0296887Y0145531D01*
X0296887Y0143494D02*
X0276853Y0143494D01*
X0276853Y0141895D02*
X0296887Y0141895D01*
X0296887Y0140297D02*
X0276853Y0140297D01*
X0276853Y0138698D02*
X0296887Y0138698D01*
X0296887Y0137100D02*
X0276853Y0137100D01*
X0276853Y0135501D02*
X0296887Y0135501D01*
X0296887Y0133903D02*
X0276853Y0133903D01*
X0276853Y0132304D02*
X0296887Y0132304D01*
X0312286Y0132304D02*
X0321128Y0132304D01*
X0321128Y0130706D02*
X0044228Y0130706D01*
X0044228Y0129107D02*
X0321128Y0129107D01*
X0321128Y0127509D02*
X0044228Y0127509D01*
X0044228Y0125910D02*
X0321128Y0125910D01*
X0321128Y0124312D02*
X0177988Y0124312D01*
X0178083Y0122713D02*
X0321128Y0122713D01*
X0321128Y0121115D02*
X0178083Y0121115D01*
X0178083Y0119516D02*
X0321128Y0119516D01*
X0321128Y0117918D02*
X0176250Y0117918D01*
X0176250Y0116319D02*
X0321128Y0116319D01*
X0321128Y0114721D02*
X0299731Y0114721D01*
X0299375Y0115077D02*
X0297647Y0115793D01*
X0295778Y0115793D01*
X0294050Y0115077D01*
X0292728Y0113755D01*
X0292013Y0112027D01*
X0292013Y0110158D01*
X0292728Y0108430D01*
X0294050Y0107108D01*
X0294976Y0106725D01*
X0288607Y0106725D01*
X0289532Y0107108D01*
X0290855Y0108430D01*
X0291570Y0110158D01*
X0291570Y0112027D01*
X0290855Y0113755D01*
X0289532Y0115077D01*
X0287805Y0115793D01*
X0285935Y0115793D01*
X0284208Y0115077D01*
X0282886Y0113755D01*
X0282170Y0112027D01*
X0282170Y0110158D01*
X0282886Y0108430D01*
X0284208Y0107108D01*
X0285133Y0106725D01*
X0279689Y0106725D01*
X0279701Y0106731D01*
X0280350Y0107202D01*
X0280918Y0107770D01*
X0281389Y0108420D01*
X0281754Y0109135D01*
X0282002Y0109898D01*
X0282128Y0110691D01*
X0282128Y0110810D01*
X0277310Y0110810D01*
X0277310Y0111375D01*
X0276745Y0111375D01*
X0276745Y0110810D01*
X0271928Y0110810D01*
X0271928Y0110691D01*
X0272053Y0109898D01*
X0272301Y0109135D01*
X0272666Y0108420D01*
X0273138Y0107770D01*
X0273705Y0107202D01*
X0274355Y0106731D01*
X0274366Y0106725D01*
X0236678Y0106725D01*
X0236557Y0107015D01*
X0235718Y0107855D01*
X0234621Y0108309D01*
X0233434Y0108309D01*
X0232337Y0107855D01*
X0231498Y0107015D01*
X0231043Y0105918D01*
X0231043Y0104731D01*
X0231498Y0103634D01*
X0232337Y0102795D01*
X0233434Y0102341D01*
X0234621Y0102341D01*
X0235718Y0102795D01*
X0235848Y0102925D01*
X0280253Y0102925D01*
X0280043Y0102418D01*
X0280043Y0101231D01*
X0280498Y0100134D01*
X0281337Y0099295D01*
X0282434Y0098841D01*
X0283621Y0098841D01*
X0284718Y0099295D01*
X0285309Y0099886D01*
X0291759Y0099777D01*
X0291498Y0099515D01*
X0291043Y0098418D01*
X0291043Y0097231D01*
X0291498Y0096134D01*
X0292337Y0095295D01*
X0293434Y0094841D01*
X0294621Y0094841D01*
X0295718Y0095295D01*
X0296348Y0095925D01*
X0324241Y0095925D01*
X0335128Y0085038D01*
X0336241Y0083925D01*
X0364959Y0083925D01*
X0364959Y0083311D01*
X0367847Y0080423D01*
X0364959Y0077536D01*
X0364959Y0076725D01*
X0335148Y0076725D01*
X0335557Y0077134D01*
X0336012Y0078231D01*
X0336012Y0079418D01*
X0335557Y0080515D01*
X0334718Y0081355D01*
X0333621Y0081809D01*
X0332730Y0081809D01*
X0331815Y0082725D01*
X0285815Y0082725D01*
X0283815Y0084725D01*
X0281348Y0084725D01*
X0280718Y0085355D01*
X0279621Y0085809D01*
X0278434Y0085809D01*
X0277337Y0085355D01*
X0276498Y0084515D01*
X0276043Y0083418D01*
X0276043Y0082231D01*
X0276498Y0081134D01*
X0277337Y0080295D01*
X0278434Y0079841D01*
X0279621Y0079841D01*
X0280718Y0080295D01*
X0281348Y0080925D01*
X0282241Y0080925D01*
X0283128Y0080038D01*
X0284241Y0078925D01*
X0330043Y0078925D01*
X0330043Y0078231D01*
X0330498Y0077134D01*
X0330907Y0076725D01*
X0296348Y0076725D01*
X0295718Y0077355D01*
X0294621Y0077809D01*
X0293434Y0077809D01*
X0292337Y0077355D01*
X0291707Y0076725D01*
X0287348Y0076725D01*
X0286718Y0077355D01*
X0285621Y0077809D01*
X0284434Y0077809D01*
X0283337Y0077355D01*
X0282498Y0076515D01*
X0282043Y0075418D01*
X0282043Y0074231D01*
X0282253Y0073725D01*
X0270241Y0073725D01*
X0269241Y0072725D01*
X0268348Y0072725D01*
X0267718Y0073355D01*
X0266621Y0073809D01*
X0265434Y0073809D01*
X0264337Y0073355D01*
X0263498Y0072515D01*
X0263043Y0071418D01*
X0263043Y0070231D01*
X0263498Y0069134D01*
X0264337Y0068295D01*
X0265434Y0067841D01*
X0266621Y0067841D01*
X0267718Y0068295D01*
X0268348Y0068925D01*
X0271815Y0068925D01*
X0272815Y0069925D01*
X0334241Y0069925D01*
X0336241Y0067925D01*
X0347457Y0067925D01*
X0348087Y0067295D01*
X0349184Y0066841D01*
X0350371Y0066841D01*
X0351468Y0067295D01*
X0352307Y0068134D01*
X0352762Y0069231D01*
X0352762Y0070418D01*
X0352307Y0071515D01*
X0351468Y0072355D01*
X0350371Y0072809D01*
X0349184Y0072809D01*
X0348087Y0072355D01*
X0347457Y0071725D01*
X0337815Y0071725D01*
X0336615Y0072925D01*
X0365345Y0072925D01*
X0367947Y0070323D01*
X0372172Y0070323D01*
X0375059Y0073211D01*
X0377947Y0070323D01*
X0382172Y0070323D01*
X0385159Y0073311D01*
X0385159Y0077536D01*
X0382272Y0080423D01*
X0385159Y0083311D01*
X0385159Y0085769D01*
X0386565Y0087175D01*
X0387678Y0088288D01*
X0387678Y0120504D01*
X0388307Y0121134D01*
X0388762Y0122231D01*
X0388762Y0123418D01*
X0388307Y0124515D01*
X0387468Y0125355D01*
X0386371Y0125809D01*
X0385184Y0125809D01*
X0384087Y0125355D01*
X0383248Y0124515D01*
X0382793Y0123418D01*
X0382793Y0122231D01*
X0383248Y0121134D01*
X0383878Y0120504D01*
X0383878Y0098817D01*
X0382172Y0100523D01*
X0381928Y0100523D01*
X0381928Y0101612D01*
X0380815Y0102725D01*
X0378815Y0104725D01*
X0341241Y0104725D01*
X0340128Y0103612D01*
X0340128Y0102757D01*
X0308188Y0103299D01*
X0308238Y0103348D01*
X0310603Y0104925D01*
X0310707Y0104925D01*
X0311337Y0104295D01*
X0312434Y0103841D01*
X0313621Y0103841D01*
X0314718Y0104295D01*
X0315557Y0105134D01*
X0316012Y0106231D01*
X0316012Y0107418D01*
X0315557Y0108515D01*
X0314718Y0109355D01*
X0313621Y0109809D01*
X0312434Y0109809D01*
X0311337Y0109355D01*
X0310707Y0108725D01*
X0310216Y0108725D01*
X0309628Y0108842D01*
X0309452Y0108725D01*
X0309241Y0108725D01*
X0308817Y0108301D01*
X0306452Y0106725D01*
X0298450Y0106725D01*
X0299375Y0107108D01*
X0300697Y0108430D01*
X0301413Y0110158D01*
X0301413Y0112027D01*
X0300697Y0113755D01*
X0299375Y0115077D01*
X0300959Y0113122D02*
X0321128Y0113122D01*
X0321128Y0112145D02*
X0320498Y0111515D01*
X0320043Y0110418D01*
X0320043Y0109231D01*
X0320498Y0108134D01*
X0321337Y0107295D01*
X0322434Y0106841D01*
X0323621Y0106841D01*
X0324718Y0107295D01*
X0325557Y0108134D01*
X0326012Y0109231D01*
X0326012Y0110418D01*
X0325557Y0111515D01*
X0324928Y0112145D01*
X0324928Y0148504D01*
X0325557Y0149134D01*
X0326012Y0150231D01*
X0326012Y0151418D01*
X0325557Y0152515D01*
X0324718Y0153355D01*
X0323621Y0153809D01*
X0322434Y0153809D01*
X0321337Y0153355D01*
X0320498Y0152515D01*
X0320043Y0151418D01*
X0320043Y0150231D01*
X0320498Y0149134D01*
X0321128Y0148504D01*
X0321128Y0112145D01*
X0320506Y0111524D02*
X0301413Y0111524D01*
X0301316Y0109925D02*
X0320043Y0109925D01*
X0320418Y0108327D02*
X0315636Y0108327D01*
X0316012Y0106728D02*
X0356752Y0106728D01*
X0356543Y0107231D02*
X0356998Y0106134D01*
X0357837Y0105295D01*
X0358934Y0104841D01*
X0360121Y0104841D01*
X0361218Y0105295D01*
X0362057Y0106134D01*
X0362512Y0107231D01*
X0362512Y0108418D01*
X0362057Y0109515D01*
X0361428Y0110145D01*
X0361428Y0129254D01*
X0362057Y0129884D01*
X0362512Y0130981D01*
X0362512Y0132168D01*
X0362057Y0133265D01*
X0361218Y0134105D01*
X0360121Y0134559D01*
X0358934Y0134559D01*
X0357837Y0134105D01*
X0356998Y0133265D01*
X0356543Y0132168D01*
X0356543Y0130981D01*
X0356998Y0129884D01*
X0357628Y0129254D01*
X0357628Y0110145D01*
X0356998Y0109515D01*
X0356543Y0108418D01*
X0356543Y0107231D01*
X0356543Y0108327D02*
X0349750Y0108327D01*
X0349718Y0108295D02*
X0350557Y0109134D01*
X0351012Y0110231D01*
X0351012Y0111418D01*
X0350557Y0112515D01*
X0350178Y0112895D01*
X0350178Y0133504D01*
X0350807Y0134134D01*
X0351262Y0135231D01*
X0351262Y0136418D01*
X0350807Y0137515D01*
X0349968Y0138355D01*
X0348871Y0138809D01*
X0347684Y0138809D01*
X0346587Y0138355D01*
X0345748Y0137515D01*
X0345293Y0136418D01*
X0345293Y0135231D01*
X0345748Y0134134D01*
X0346378Y0133504D01*
X0346378Y0113371D01*
X0346337Y0113355D01*
X0345498Y0112515D01*
X0345043Y0111418D01*
X0345043Y0110231D01*
X0345498Y0109134D01*
X0346337Y0108295D01*
X0347434Y0107841D01*
X0348621Y0107841D01*
X0349718Y0108295D01*
X0350885Y0109925D02*
X0353730Y0109925D01*
X0353934Y0109841D02*
X0355121Y0109841D01*
X0356218Y0110295D01*
X0357057Y0111134D01*
X0357512Y0112231D01*
X0357512Y0113418D01*
X0357057Y0114515D01*
X0356428Y0115145D01*
X0356428Y0125504D01*
X0357057Y0126134D01*
X0357512Y0127231D01*
X0357512Y0128418D01*
X0357057Y0129515D01*
X0356218Y0130355D01*
X0355121Y0130809D01*
X0353934Y0130809D01*
X0352837Y0130355D01*
X0351998Y0129515D01*
X0351543Y0128418D01*
X0351543Y0127231D01*
X0351998Y0126134D01*
X0352628Y0125504D01*
X0352628Y0115145D01*
X0351998Y0114515D01*
X0351543Y0113418D01*
X0351543Y0112231D01*
X0351998Y0111134D01*
X0352837Y0110295D01*
X0353934Y0109841D01*
X0355325Y0109925D02*
X0357407Y0109925D01*
X0357219Y0111524D02*
X0357628Y0111524D01*
X0357628Y0113122D02*
X0357512Y0113122D01*
X0357628Y0114721D02*
X0356852Y0114721D01*
X0356428Y0116319D02*
X0357628Y0116319D01*
X0357628Y0117918D02*
X0356428Y0117918D01*
X0356428Y0119516D02*
X0357628Y0119516D01*
X0357628Y0121115D02*
X0356428Y0121115D01*
X0356428Y0122713D02*
X0357628Y0122713D01*
X0357628Y0124312D02*
X0356428Y0124312D01*
X0356833Y0125910D02*
X0357628Y0125910D01*
X0357628Y0127509D02*
X0357512Y0127509D01*
X0357628Y0129107D02*
X0357227Y0129107D01*
X0356657Y0130706D02*
X0355371Y0130706D01*
X0353684Y0130706D02*
X0350178Y0130706D01*
X0350178Y0132304D02*
X0356600Y0132304D01*
X0357635Y0133903D02*
X0350576Y0133903D01*
X0351262Y0135501D02*
X0394598Y0135501D01*
X0394598Y0133903D02*
X0361420Y0133903D01*
X0362456Y0132304D02*
X0394598Y0132304D01*
X0394598Y0130706D02*
X0362398Y0130706D01*
X0361428Y0129107D02*
X0394598Y0129107D01*
X0394598Y0127509D02*
X0361428Y0127509D01*
X0361428Y0125910D02*
X0394598Y0125910D01*
X0394598Y0124312D02*
X0388392Y0124312D01*
X0388762Y0122713D02*
X0394598Y0122713D01*
X0394598Y0121115D02*
X0388288Y0121115D01*
X0387678Y0119516D02*
X0394598Y0119516D01*
X0394598Y0117918D02*
X0387678Y0117918D01*
X0387678Y0116319D02*
X0394598Y0116319D01*
X0394598Y0114721D02*
X0387678Y0114721D01*
X0387678Y0113122D02*
X0394598Y0113122D01*
X0394598Y0111524D02*
X0387678Y0111524D01*
X0387678Y0109925D02*
X0394598Y0109925D01*
X0394598Y0108327D02*
X0387678Y0108327D01*
X0387678Y0106728D02*
X0394598Y0106728D01*
X0394598Y0105130D02*
X0387678Y0105130D01*
X0387678Y0103531D02*
X0394598Y0103531D01*
X0388692Y0101933D02*
X0387678Y0101933D01*
X0387678Y0100334D02*
X0388692Y0100334D01*
X0388692Y0098735D02*
X0387678Y0098735D01*
X0387678Y0097137D02*
X0388692Y0097137D01*
X0388692Y0095538D02*
X0387678Y0095538D01*
X0387678Y0093940D02*
X0388692Y0093940D01*
X0388692Y0092341D02*
X0387678Y0092341D01*
X0387678Y0090743D02*
X0388692Y0090743D01*
X0388692Y0089144D02*
X0387678Y0089144D01*
X0386936Y0087546D02*
X0388692Y0087546D01*
X0388692Y0085947D02*
X0385337Y0085947D01*
X0385159Y0084349D02*
X0388692Y0084349D01*
X0388692Y0082750D02*
X0384599Y0082750D01*
X0383000Y0081152D02*
X0388692Y0081152D01*
X0388692Y0079553D02*
X0383141Y0079553D01*
X0384740Y0077955D02*
X0388692Y0077955D01*
X0388692Y0076356D02*
X0385159Y0076356D01*
X0385159Y0074758D02*
X0388692Y0074758D01*
X0388692Y0073159D02*
X0385008Y0073159D01*
X0383409Y0071561D02*
X0388692Y0071561D01*
X0388692Y0069962D02*
X0352762Y0069962D01*
X0352402Y0068364D02*
X0388692Y0068364D01*
X0388692Y0066765D02*
X0214774Y0066765D01*
X0216373Y0065167D02*
X0388692Y0065167D01*
X0388692Y0063568D02*
X0217971Y0063568D01*
X0219570Y0061970D02*
X0388692Y0061970D01*
X0388692Y0060371D02*
X0235617Y0060371D01*
X0236012Y0058773D02*
X0388692Y0058773D01*
X0388692Y0057174D02*
X0235574Y0057174D01*
X0218991Y0057174D02*
X0185899Y0057174D01*
X0182767Y0058773D02*
X0217393Y0058773D01*
X0215794Y0060371D02*
X0181168Y0060371D01*
X0171903Y0061970D02*
X0214196Y0061970D01*
X0212597Y0063568D02*
X0171950Y0063568D01*
X0170928Y0065167D02*
X0192999Y0065167D01*
X0191400Y0066765D02*
X0170928Y0066765D01*
X0170928Y0068364D02*
X0189802Y0068364D01*
X0188203Y0069962D02*
X0170928Y0069962D01*
X0170928Y0071561D02*
X0186605Y0071561D01*
X0185006Y0073159D02*
X0170928Y0073159D01*
X0171181Y0074758D02*
X0183408Y0074758D01*
X0181809Y0076356D02*
X0172012Y0076356D01*
X0171790Y0077955D02*
X0180211Y0077955D01*
X0178612Y0079553D02*
X0170238Y0079553D01*
X0176128Y0085947D02*
X0142837Y0085947D01*
X0144436Y0087546D02*
X0176128Y0087546D01*
X0176128Y0089144D02*
X0146034Y0089144D01*
X0147633Y0090743D02*
X0176128Y0090743D01*
X0176128Y0092341D02*
X0149231Y0092341D01*
X0150830Y0093940D02*
X0176128Y0093940D01*
X0176128Y0095538D02*
X0152428Y0095538D01*
X0154027Y0097137D02*
X0176128Y0097137D01*
X0176128Y0098735D02*
X0156721Y0098735D01*
X0158494Y0100334D02*
X0176128Y0100334D01*
X0176128Y0101933D02*
X0158762Y0101933D01*
X0158042Y0103531D02*
X0176128Y0103531D01*
X0176128Y0105130D02*
X0141019Y0105130D01*
X0142618Y0106728D02*
X0176128Y0106728D01*
X0176128Y0108327D02*
X0144216Y0108327D01*
X0145815Y0109925D02*
X0176128Y0109925D01*
X0175169Y0111524D02*
X0147413Y0111524D01*
X0149012Y0113122D02*
X0173571Y0113122D01*
X0173563Y0113130D02*
X0173563Y0113130D01*
X0172450Y0114721D02*
X0150610Y0114721D01*
X0153634Y0116319D02*
X0172450Y0116319D01*
X0172450Y0117918D02*
X0154012Y0117918D01*
X0153557Y0119516D02*
X0171720Y0119516D01*
X0171720Y0121115D02*
X0044228Y0121115D01*
X0044228Y0122713D02*
X0171720Y0122713D01*
X0171815Y0124312D02*
X0044228Y0124312D01*
X0039828Y0124312D02*
X0019064Y0124312D01*
X0019064Y0125910D02*
X0039828Y0125910D01*
X0039828Y0127509D02*
X0019064Y0127509D01*
X0019064Y0129107D02*
X0039828Y0129107D01*
X0039828Y0130706D02*
X0019064Y0130706D01*
X0019064Y0132304D02*
X0039828Y0132304D01*
X0039828Y0133903D02*
X0019064Y0133903D01*
X0019064Y0135501D02*
X0039828Y0135501D01*
X0039828Y0137100D02*
X0019064Y0137100D01*
X0019064Y0138698D02*
X0039828Y0138698D01*
X0039013Y0140297D02*
X0019064Y0140297D01*
X0019064Y0141895D02*
X0038846Y0141895D01*
X0038846Y0143494D02*
X0019064Y0143494D01*
X0019064Y0145092D02*
X0038846Y0145092D01*
X0019064Y0146691D02*
X0321128Y0146691D01*
X0321128Y0148289D02*
X0019064Y0148289D01*
X0019064Y0149888D02*
X0320186Y0149888D01*
X0320071Y0151486D02*
X0019064Y0151486D01*
X0019064Y0153085D02*
X0321067Y0153085D01*
X0324988Y0153085D02*
X0394598Y0153085D01*
X0394598Y0154683D02*
X0019064Y0154683D01*
X0019064Y0156282D02*
X0394598Y0156282D01*
X0394598Y0157880D02*
X0019064Y0157880D01*
X0019064Y0159479D02*
X0394598Y0159479D01*
X0394598Y0161077D02*
X0019064Y0161077D01*
X0019064Y0122713D02*
X0039828Y0122713D01*
X0039828Y0121115D02*
X0019064Y0121115D01*
X0019064Y0119516D02*
X0039828Y0119516D01*
X0039828Y0117918D02*
X0019064Y0117918D01*
X0019064Y0116319D02*
X0039828Y0116319D01*
X0039828Y0114721D02*
X0019064Y0114721D01*
X0019064Y0113122D02*
X0039828Y0113122D01*
X0039828Y0111524D02*
X0019064Y0111524D01*
X0019064Y0109925D02*
X0039828Y0109925D01*
X0039828Y0108327D02*
X0019064Y0108327D01*
X0019064Y0106728D02*
X0040013Y0106728D01*
X0041612Y0105130D02*
X0019064Y0105130D01*
X0019064Y0103531D02*
X0043210Y0103531D01*
X0044809Y0101933D02*
X0019064Y0101933D01*
X0019064Y0100334D02*
X0043316Y0100334D01*
X0042175Y0098735D02*
X0019064Y0098735D01*
X0019064Y0097137D02*
X0042082Y0097137D01*
X0043094Y0095538D02*
X0019064Y0095538D01*
X0019064Y0093940D02*
X0145456Y0093940D01*
X0147054Y0095538D02*
X0125212Y0095538D01*
X0124968Y0095295D02*
X0125807Y0096134D01*
X0126262Y0097231D01*
X0126262Y0098418D01*
X0125807Y0099515D01*
X0124968Y0100355D01*
X0123871Y0100809D01*
X0122684Y0100809D01*
X0121587Y0100355D01*
X0120957Y0099725D01*
X0107348Y0099725D01*
X0106718Y0100355D01*
X0105621Y0100809D01*
X0104434Y0100809D01*
X0103337Y0100355D01*
X0102498Y0099515D01*
X0102043Y0098418D01*
X0102043Y0097231D01*
X0102498Y0096134D01*
X0103337Y0095295D01*
X0104434Y0094841D01*
X0105621Y0094841D01*
X0106718Y0095295D01*
X0107348Y0095925D01*
X0120957Y0095925D01*
X0121587Y0095295D01*
X0122684Y0094841D01*
X0123871Y0094841D01*
X0124968Y0095295D01*
X0126223Y0097137D02*
X0148653Y0097137D01*
X0150251Y0098735D02*
X0126130Y0098735D01*
X0124989Y0100334D02*
X0151850Y0100334D01*
X0152793Y0101933D02*
X0137822Y0101933D01*
X0139421Y0103531D02*
X0153513Y0103531D01*
X0142039Y0111524D02*
X0134956Y0111524D01*
X0134956Y0112027D02*
X0134240Y0113755D01*
X0132918Y0115077D01*
X0131191Y0115793D01*
X0129321Y0115793D01*
X0127594Y0115077D01*
X0126271Y0113755D01*
X0125556Y0112027D01*
X0125556Y0110158D01*
X0126271Y0108430D01*
X0127594Y0107108D01*
X0129321Y0106393D01*
X0131191Y0106393D01*
X0132918Y0107108D01*
X0134240Y0108430D01*
X0134956Y0110158D01*
X0134956Y0112027D01*
X0134502Y0113122D02*
X0143638Y0113122D01*
X0145236Y0114721D02*
X0133275Y0114721D01*
X0127237Y0114721D02*
X0123432Y0114721D01*
X0123076Y0115077D02*
X0121348Y0115793D01*
X0119478Y0115793D01*
X0117751Y0115077D01*
X0116429Y0113755D01*
X0115713Y0112027D01*
X0115713Y0110158D01*
X0116429Y0108430D01*
X0117751Y0107108D01*
X0119478Y0106393D01*
X0121348Y0106393D01*
X0123076Y0107108D01*
X0124398Y0108430D01*
X0125113Y0110158D01*
X0125113Y0112027D01*
X0124398Y0113755D01*
X0123076Y0115077D01*
X0124660Y0113122D02*
X0126009Y0113122D01*
X0125556Y0111524D02*
X0125113Y0111524D01*
X0125017Y0109925D02*
X0125652Y0109925D01*
X0126375Y0108327D02*
X0124294Y0108327D01*
X0122158Y0106728D02*
X0128511Y0106728D01*
X0132001Y0106728D02*
X0137244Y0106728D01*
X0138842Y0108327D02*
X0134137Y0108327D01*
X0134860Y0109925D02*
X0140441Y0109925D01*
X0135645Y0105130D02*
X0102410Y0105130D01*
X0100811Y0106728D02*
X0107903Y0106728D01*
X0107898Y0106731D02*
X0108613Y0106366D01*
X0109377Y0106118D01*
X0110169Y0105993D01*
X0110288Y0105993D01*
X0110288Y0110810D01*
X0105471Y0110810D01*
X0105471Y0110691D01*
X0105596Y0109898D01*
X0105845Y0109135D01*
X0106209Y0108420D01*
X0106681Y0107770D01*
X0107248Y0107202D01*
X0107898Y0106731D01*
X0106277Y0108327D02*
X0099213Y0108327D01*
X0097614Y0109925D02*
X0105592Y0109925D01*
X0105471Y0111375D02*
X0110288Y0111375D01*
X0110288Y0110810D01*
X0110854Y0110810D01*
X0110854Y0111375D01*
X0115671Y0111375D01*
X0115671Y0111494D01*
X0115545Y0112287D01*
X0115297Y0113050D01*
X0114933Y0113766D01*
X0114461Y0114415D01*
X0113893Y0114983D01*
X0113244Y0115454D01*
X0112529Y0115819D01*
X0111765Y0116067D01*
X0110972Y0116193D01*
X0110854Y0116192D01*
X0110854Y0111375D01*
X0110288Y0111375D01*
X0110288Y0116193D01*
X0110169Y0116193D01*
X0109377Y0116067D01*
X0108613Y0115819D01*
X0107898Y0115454D01*
X0107248Y0114983D01*
X0106681Y0114415D01*
X0106209Y0113766D01*
X0105845Y0113050D01*
X0105596Y0112287D01*
X0105471Y0111494D01*
X0105471Y0111375D01*
X0105476Y0111524D02*
X0096016Y0111524D01*
X0105881Y0113122D02*
X0044228Y0113122D01*
X0044228Y0111524D02*
X0044506Y0111524D01*
X0044228Y0114721D02*
X0106986Y0114721D01*
X0110288Y0114721D02*
X0110854Y0114721D01*
X0110854Y0113122D02*
X0110288Y0113122D01*
X0110288Y0111524D02*
X0110854Y0111524D01*
X0110854Y0110810D02*
X0115671Y0110810D01*
X0115671Y0110691D01*
X0115545Y0109898D01*
X0115297Y0109135D01*
X0114933Y0108420D01*
X0114461Y0107770D01*
X0113893Y0107202D01*
X0113244Y0106731D01*
X0112529Y0106366D01*
X0111765Y0106118D01*
X0110972Y0105993D01*
X0110854Y0105993D01*
X0110854Y0110810D01*
X0110854Y0109925D02*
X0110288Y0109925D01*
X0110288Y0108327D02*
X0110854Y0108327D01*
X0110854Y0106728D02*
X0110288Y0106728D01*
X0113239Y0106728D02*
X0118668Y0106728D01*
X0116533Y0108327D02*
X0114865Y0108327D01*
X0115550Y0109925D02*
X0115810Y0109925D01*
X0115713Y0111524D02*
X0115666Y0111524D01*
X0115261Y0113122D02*
X0116167Y0113122D01*
X0117395Y0114721D02*
X0114155Y0114721D01*
X0121566Y0100334D02*
X0106739Y0100334D01*
X0103316Y0100334D02*
X0071757Y0100334D01*
X0068298Y0100334D02*
X0063739Y0100334D01*
X0064880Y0098735D02*
X0102175Y0098735D01*
X0102082Y0097137D02*
X0064973Y0097137D01*
X0063962Y0095538D02*
X0103094Y0095538D01*
X0106962Y0095538D02*
X0121344Y0095538D01*
X0146835Y0116319D02*
X0044228Y0116319D01*
X0044228Y0117918D02*
X0148043Y0117918D01*
X0148499Y0119516D02*
X0044228Y0119516D01*
X0046739Y0100334D02*
X0060316Y0100334D01*
X0060094Y0095538D02*
X0046962Y0095538D01*
X0040536Y0079553D02*
X0019064Y0079553D01*
X0019064Y0077955D02*
X0040043Y0077955D01*
X0177346Y0114721D02*
X0273443Y0114721D01*
X0273705Y0114983D02*
X0273138Y0114415D01*
X0272666Y0113766D01*
X0272301Y0113050D01*
X0272053Y0112287D01*
X0271928Y0111494D01*
X0271928Y0111375D01*
X0276745Y0111375D01*
X0276745Y0116193D01*
X0276626Y0116193D01*
X0275833Y0116067D01*
X0275070Y0115819D01*
X0274355Y0115454D01*
X0273705Y0114983D01*
X0272338Y0113122D02*
X0178945Y0113122D01*
X0179928Y0111524D02*
X0271932Y0111524D01*
X0272049Y0109925D02*
X0179928Y0109925D01*
X0179928Y0108327D02*
X0272733Y0108327D01*
X0274360Y0106728D02*
X0236676Y0106728D01*
X0231379Y0106728D02*
X0179928Y0106728D01*
X0179928Y0105130D02*
X0231043Y0105130D01*
X0231601Y0103531D02*
X0179928Y0103531D01*
X0179928Y0101933D02*
X0280043Y0101933D01*
X0280415Y0100334D02*
X0179928Y0100334D01*
X0179928Y0098735D02*
X0291175Y0098735D01*
X0291082Y0097137D02*
X0179928Y0097137D01*
X0179928Y0095538D02*
X0292094Y0095538D01*
X0295962Y0095538D02*
X0324627Y0095538D01*
X0326225Y0093940D02*
X0179928Y0093940D01*
X0179928Y0092341D02*
X0327824Y0092341D01*
X0329422Y0090743D02*
X0273330Y0090743D01*
X0273557Y0090515D02*
X0272718Y0091355D01*
X0271621Y0091809D01*
X0270434Y0091809D01*
X0270231Y0091725D01*
X0219241Y0091725D01*
X0218128Y0090612D01*
X0218128Y0074145D01*
X0217498Y0073515D01*
X0217043Y0072418D01*
X0217043Y0071231D01*
X0217498Y0070134D01*
X0218337Y0069295D01*
X0219434Y0068841D01*
X0220621Y0068841D01*
X0221718Y0069295D01*
X0222557Y0070134D01*
X0223012Y0071231D01*
X0223012Y0072418D01*
X0222557Y0073515D01*
X0221928Y0074145D01*
X0221928Y0087925D01*
X0235907Y0087925D01*
X0235498Y0087515D01*
X0235043Y0086418D01*
X0235043Y0085231D01*
X0235498Y0084134D01*
X0236337Y0083295D01*
X0237434Y0082841D01*
X0238621Y0082841D01*
X0239718Y0083295D01*
X0240348Y0083925D01*
X0263707Y0083925D01*
X0264337Y0083295D01*
X0265434Y0082841D01*
X0266621Y0082841D01*
X0267718Y0083295D01*
X0268557Y0084134D01*
X0269012Y0085231D01*
X0269012Y0086418D01*
X0268869Y0086763D01*
X0269337Y0086295D01*
X0270434Y0085841D01*
X0271621Y0085841D01*
X0272718Y0086295D01*
X0273557Y0087134D01*
X0274012Y0088231D01*
X0274012Y0089418D01*
X0273557Y0090515D01*
X0274012Y0089144D02*
X0331021Y0089144D01*
X0332619Y0087546D02*
X0273728Y0087546D01*
X0271879Y0085947D02*
X0334218Y0085947D01*
X0335816Y0084349D02*
X0284190Y0084349D01*
X0285789Y0082750D02*
X0365519Y0082750D01*
X0367118Y0081152D02*
X0334921Y0081152D01*
X0335956Y0079553D02*
X0366977Y0079553D01*
X0365378Y0077955D02*
X0335897Y0077955D01*
X0330158Y0077955D02*
X0221928Y0077955D01*
X0221928Y0079553D02*
X0283612Y0079553D01*
X0282432Y0076356D02*
X0221928Y0076356D01*
X0221928Y0074758D02*
X0282043Y0074758D01*
X0276490Y0081152D02*
X0221928Y0081152D01*
X0221928Y0082750D02*
X0276043Y0082750D01*
X0276429Y0084349D02*
X0268646Y0084349D01*
X0269012Y0085947D02*
X0270176Y0085947D01*
X0269675Y0073159D02*
X0267913Y0073159D01*
X0264142Y0073159D02*
X0222705Y0073159D01*
X0223012Y0071561D02*
X0263102Y0071561D01*
X0263155Y0069962D02*
X0222385Y0069962D01*
X0217670Y0069962D02*
X0193577Y0069962D01*
X0191979Y0071561D02*
X0217043Y0071561D01*
X0217350Y0073159D02*
X0190380Y0073159D01*
X0188782Y0074758D02*
X0218128Y0074758D01*
X0218128Y0076356D02*
X0187183Y0076356D01*
X0185585Y0077955D02*
X0218128Y0077955D01*
X0218128Y0079553D02*
X0183986Y0079553D01*
X0182387Y0081152D02*
X0218128Y0081152D01*
X0218128Y0082750D02*
X0180789Y0082750D01*
X0179928Y0084349D02*
X0218128Y0084349D01*
X0218128Y0085947D02*
X0179928Y0085947D01*
X0179928Y0087546D02*
X0218128Y0087546D01*
X0218128Y0089144D02*
X0179928Y0089144D01*
X0179928Y0090743D02*
X0218259Y0090743D01*
X0221928Y0087546D02*
X0235528Y0087546D01*
X0235043Y0085947D02*
X0221928Y0085947D01*
X0221928Y0084349D02*
X0235409Y0084349D01*
X0213176Y0068364D02*
X0264268Y0068364D01*
X0267787Y0068364D02*
X0335802Y0068364D01*
X0352262Y0071561D02*
X0366709Y0071561D01*
X0373409Y0071561D02*
X0376709Y0071561D01*
X0375110Y0073159D02*
X0375008Y0073159D01*
X0365148Y0087725D02*
X0337815Y0087725D01*
X0326928Y0098612D01*
X0326349Y0099190D01*
X0341227Y0098938D01*
X0341241Y0098925D01*
X0342011Y0098925D01*
X0342782Y0098912D01*
X0342796Y0098925D01*
X0342815Y0098925D01*
X0343360Y0099470D01*
X0343914Y0100006D01*
X0343914Y0100025D01*
X0343928Y0100038D01*
X0343928Y0100809D01*
X0343930Y0100925D01*
X0377241Y0100925D01*
X0377794Y0100371D01*
X0375342Y0097919D01*
X0372337Y0100923D01*
X0370259Y0100923D01*
X0370259Y0095623D01*
X0369859Y0095623D01*
X0369859Y0095223D01*
X0364559Y0095223D01*
X0364559Y0093145D01*
X0367564Y0090140D01*
X0365148Y0087725D01*
X0366568Y0089144D02*
X0336395Y0089144D01*
X0334796Y0090743D02*
X0366961Y0090743D01*
X0365363Y0092341D02*
X0333198Y0092341D01*
X0331599Y0093940D02*
X0364559Y0093940D01*
X0364559Y0095623D02*
X0369859Y0095623D01*
X0369859Y0100923D01*
X0367781Y0100923D01*
X0364559Y0097701D01*
X0364559Y0095623D01*
X0364559Y0097137D02*
X0328402Y0097137D01*
X0326804Y0098735D02*
X0365593Y0098735D01*
X0367192Y0100334D02*
X0343928Y0100334D01*
X0340128Y0103531D02*
X0308512Y0103531D01*
X0306457Y0106728D02*
X0298457Y0106728D01*
X0300593Y0108327D02*
X0308842Y0108327D01*
X0315553Y0105130D02*
X0358236Y0105130D01*
X0360819Y0105130D02*
X0383878Y0105130D01*
X0383878Y0106728D02*
X0362303Y0106728D01*
X0362512Y0108327D02*
X0383878Y0108327D01*
X0383878Y0109925D02*
X0361648Y0109925D01*
X0361428Y0111524D02*
X0383878Y0111524D01*
X0383878Y0113122D02*
X0361428Y0113122D01*
X0361428Y0114721D02*
X0383878Y0114721D01*
X0383878Y0116319D02*
X0361428Y0116319D01*
X0361428Y0117918D02*
X0383878Y0117918D01*
X0383878Y0119516D02*
X0361428Y0119516D01*
X0361428Y0121115D02*
X0383267Y0121115D01*
X0382793Y0122713D02*
X0361428Y0122713D01*
X0361428Y0124312D02*
X0383163Y0124312D01*
X0394598Y0137100D02*
X0350980Y0137100D01*
X0349139Y0138698D02*
X0394598Y0138698D01*
X0394598Y0140297D02*
X0324928Y0140297D01*
X0324928Y0141895D02*
X0394598Y0141895D01*
X0394598Y0143494D02*
X0324928Y0143494D01*
X0324928Y0145092D02*
X0394598Y0145092D01*
X0394598Y0146691D02*
X0324928Y0146691D01*
X0324928Y0148289D02*
X0394598Y0148289D01*
X0394598Y0149888D02*
X0325870Y0149888D01*
X0325984Y0151486D02*
X0394598Y0151486D01*
X0351829Y0129107D02*
X0350178Y0129107D01*
X0350178Y0127509D02*
X0351543Y0127509D01*
X0352222Y0125910D02*
X0350178Y0125910D01*
X0350178Y0124312D02*
X0352628Y0124312D01*
X0352628Y0122713D02*
X0350178Y0122713D01*
X0350178Y0121115D02*
X0352628Y0121115D01*
X0352628Y0119516D02*
X0350178Y0119516D01*
X0350178Y0117918D02*
X0352628Y0117918D01*
X0352628Y0116319D02*
X0350178Y0116319D01*
X0350178Y0114721D02*
X0352203Y0114721D01*
X0351543Y0113122D02*
X0350178Y0113122D01*
X0350968Y0111524D02*
X0351836Y0111524D01*
X0346104Y0113122D02*
X0324928Y0113122D01*
X0324928Y0114721D02*
X0346378Y0114721D01*
X0346378Y0116319D02*
X0324928Y0116319D01*
X0324928Y0117918D02*
X0346378Y0117918D01*
X0346378Y0119516D02*
X0324928Y0119516D01*
X0324928Y0121115D02*
X0346378Y0121115D01*
X0346378Y0122713D02*
X0324928Y0122713D01*
X0324928Y0124312D02*
X0346378Y0124312D01*
X0346378Y0125910D02*
X0324928Y0125910D01*
X0324928Y0127509D02*
X0346378Y0127509D01*
X0346378Y0129107D02*
X0324928Y0129107D01*
X0324928Y0130706D02*
X0346378Y0130706D01*
X0346378Y0132304D02*
X0324928Y0132304D01*
X0324928Y0133903D02*
X0345979Y0133903D01*
X0345293Y0135501D02*
X0324928Y0135501D01*
X0324928Y0137100D02*
X0345576Y0137100D01*
X0347417Y0138698D02*
X0324928Y0138698D01*
X0321128Y0138698D02*
X0312286Y0138698D01*
X0312286Y0137100D02*
X0321128Y0137100D01*
X0321128Y0135501D02*
X0312286Y0135501D01*
X0312286Y0133903D02*
X0321128Y0133903D01*
X0321128Y0140297D02*
X0312286Y0140297D01*
X0312286Y0141895D02*
X0321128Y0141895D01*
X0321128Y0143494D02*
X0312286Y0143494D01*
X0312286Y0145092D02*
X0321128Y0145092D01*
X0280350Y0114983D02*
X0279701Y0115454D01*
X0278985Y0115819D01*
X0278222Y0116067D01*
X0277429Y0116193D01*
X0277310Y0116192D01*
X0277310Y0111375D01*
X0282128Y0111375D01*
X0282128Y0111494D01*
X0282002Y0112287D01*
X0281754Y0113050D01*
X0281389Y0113766D01*
X0280918Y0114415D01*
X0280350Y0114983D01*
X0280612Y0114721D02*
X0283851Y0114721D01*
X0282624Y0113122D02*
X0281717Y0113122D01*
X0282123Y0111524D02*
X0282170Y0111524D01*
X0282266Y0109925D02*
X0282006Y0109925D01*
X0281322Y0108327D02*
X0282989Y0108327D01*
X0285125Y0106728D02*
X0279695Y0106728D01*
X0277310Y0111524D02*
X0276745Y0111524D01*
X0276745Y0113122D02*
X0277310Y0113122D01*
X0277310Y0114721D02*
X0276745Y0114721D01*
X0289889Y0114721D02*
X0293694Y0114721D01*
X0292466Y0113122D02*
X0291117Y0113122D01*
X0291570Y0111524D02*
X0292013Y0111524D01*
X0292109Y0109925D02*
X0291474Y0109925D01*
X0290751Y0108327D02*
X0292832Y0108327D01*
X0294968Y0106728D02*
X0288615Y0106728D01*
X0325637Y0108327D02*
X0346305Y0108327D01*
X0345170Y0109925D02*
X0326012Y0109925D01*
X0325549Y0111524D02*
X0345087Y0111524D01*
X0330001Y0095538D02*
X0369859Y0095538D01*
X0369859Y0097137D02*
X0370259Y0097137D01*
X0370259Y0098735D02*
X0369859Y0098735D01*
X0369859Y0100334D02*
X0370259Y0100334D01*
X0372926Y0100334D02*
X0377757Y0100334D01*
X0376159Y0098735D02*
X0374525Y0098735D01*
X0380008Y0103531D02*
X0383878Y0103531D01*
X0383878Y0101933D02*
X0381607Y0101933D01*
X0382361Y0100334D02*
X0383878Y0100334D01*
X0388692Y0055576D02*
X0210063Y0055576D01*
X0212526Y0053977D02*
X0388692Y0053977D01*
X0388692Y0052379D02*
X0214361Y0052379D01*
X0213645Y0053237D02*
X0213645Y0053237D01*
X0213645Y0053237D01*
X0215693Y0050780D02*
X0388692Y0050780D01*
X0388692Y0049182D02*
X0216686Y0049182D01*
X0217367Y0047583D02*
X0388692Y0047583D01*
X0388692Y0045985D02*
X0217995Y0045985D01*
X0224800Y0044386D02*
X0388692Y0044386D01*
X0388692Y0042788D02*
X0233188Y0042788D01*
X0241576Y0041189D02*
X0388692Y0041189D01*
X0388692Y0039591D02*
X0249963Y0039591D01*
X0258351Y0037992D02*
X0388692Y0037992D01*
X0388692Y0036394D02*
X0266739Y0036394D01*
X0275127Y0034795D02*
X0388692Y0034795D01*
X0388692Y0033197D02*
X0286555Y0033197D01*
X0288443Y0031598D02*
X0298543Y0031598D01*
X0298415Y0031545D02*
X0297315Y0030445D01*
X0296720Y0029008D01*
X0296720Y0027453D01*
X0297315Y0026016D01*
X0298415Y0024916D01*
X0299852Y0024321D01*
X0301408Y0024321D01*
X0302845Y0024916D01*
X0303945Y0026016D01*
X0304540Y0027453D01*
X0304540Y0029008D01*
X0303945Y0030445D01*
X0302845Y0031545D01*
X0301408Y0032140D01*
X0299852Y0032140D01*
X0298415Y0031545D01*
X0297131Y0029999D02*
X0288749Y0029999D01*
X0288749Y0028401D02*
X0296720Y0028401D01*
X0296989Y0026802D02*
X0288749Y0026802D01*
X0288749Y0025204D02*
X0298127Y0025204D01*
X0301353Y0022007D02*
X0319001Y0022007D01*
X0318423Y0020408D02*
X0301931Y0020408D01*
X0301931Y0018810D02*
X0318423Y0018810D01*
X0318423Y0017211D02*
X0301931Y0017211D01*
X0301931Y0015613D02*
X0318423Y0015613D01*
X0318423Y0014014D02*
X0301931Y0014014D01*
X0290273Y0014014D02*
X0288749Y0014014D01*
X0288749Y0015613D02*
X0290273Y0015613D01*
X0290273Y0017211D02*
X0288749Y0017211D01*
X0288749Y0018810D02*
X0290273Y0018810D01*
X0290273Y0020408D02*
X0288749Y0020408D01*
X0288749Y0022007D02*
X0290852Y0022007D01*
X0288749Y0023605D02*
X0377351Y0023605D01*
X0376329Y0022007D02*
X0329503Y0022007D01*
X0330081Y0020408D02*
X0375332Y0020408D01*
X0374890Y0018810D02*
X0330081Y0018810D01*
X0330081Y0017211D02*
X0374449Y0017211D01*
X0374227Y0015613D02*
X0330081Y0015613D01*
X0330081Y0014014D02*
X0374275Y0014014D01*
X0378969Y0025204D02*
X0322227Y0025204D01*
X0321939Y0024916D02*
X0323039Y0026016D01*
X0323634Y0027453D01*
X0323634Y0029008D01*
X0323039Y0030445D01*
X0321939Y0031545D01*
X0320502Y0032140D01*
X0318947Y0032140D01*
X0317510Y0031545D01*
X0316410Y0030445D01*
X0315815Y0029008D01*
X0315815Y0027453D01*
X0316410Y0026016D01*
X0317510Y0024916D01*
X0318947Y0024321D01*
X0320502Y0024321D01*
X0321939Y0024916D01*
X0323365Y0026802D02*
X0380858Y0026802D01*
X0380959Y0026887D02*
X0380959Y0026887D01*
X0384512Y0028401D02*
X0323634Y0028401D01*
X0323224Y0029999D02*
X0388692Y0029999D01*
X0388692Y0031598D02*
X0321811Y0031598D01*
X0317638Y0031598D02*
X0302717Y0031598D01*
X0304129Y0029999D02*
X0316225Y0029999D01*
X0315815Y0028401D02*
X0304540Y0028401D01*
X0304270Y0026802D02*
X0316084Y0026802D01*
X0317221Y0025204D02*
X0303133Y0025204D01*
D19*
X0325264Y0035476D03*
X0279028Y0055825D03*
X0266028Y0070825D03*
X0258028Y0073825D03*
X0266028Y0085825D03*
X0271028Y0088825D03*
X0279028Y0082825D03*
X0285028Y0074825D03*
X0294028Y0074825D03*
X0314028Y0066825D03*
X0333028Y0078825D03*
X0320028Y0086825D03*
X0294028Y0097825D03*
X0283028Y0101825D03*
X0313028Y0106825D03*
X0323028Y0109825D03*
X0348028Y0110825D03*
X0354528Y0112825D03*
X0359528Y0107825D03*
X0385778Y0122825D03*
X0359528Y0131575D03*
X0354528Y0127825D03*
X0348278Y0135825D03*
X0323028Y0150825D03*
X0379028Y0156825D03*
X0239902Y0142856D03*
X0210902Y0151856D03*
X0194902Y0143856D03*
X0184902Y0139856D03*
X0157028Y0118075D03*
X0151028Y0117825D03*
X0155778Y0101575D03*
X0123278Y0097825D03*
X0105028Y0097825D03*
X0085028Y0087825D03*
X0077028Y0072825D03*
X0086028Y0061825D03*
X0064028Y0061825D03*
X0043028Y0077825D03*
X0045028Y0097825D03*
X0047028Y0109825D03*
X0062028Y0097825D03*
X0070028Y0102825D03*
X0079028Y0122825D03*
X0052028Y0125825D03*
X0128278Y0074075D03*
X0169028Y0076825D03*
X0169028Y0062825D03*
X0184028Y0054825D03*
X0220028Y0071825D03*
X0238028Y0085825D03*
X0234028Y0105325D03*
X0189528Y0097825D03*
X0233028Y0058825D03*
X0150028Y0044825D03*
X0114028Y0040825D03*
X0070028Y0026825D03*
X0028028Y0043825D03*
X0349778Y0069825D03*
D20*
X0337028Y0069825D01*
X0335028Y0071825D01*
X0271028Y0071825D01*
X0271028Y0070825D01*
X0266028Y0070825D01*
X0258028Y0072825D02*
X0258028Y0073825D01*
X0266028Y0085825D02*
X0238028Y0085825D01*
X0220028Y0089825D02*
X0220028Y0071825D01*
X0212028Y0066825D02*
X0220028Y0058825D01*
X0233028Y0058825D01*
X0212028Y0066825D02*
X0194028Y0066825D01*
X0178028Y0082825D01*
X0178028Y0111352D01*
X0174350Y0115030D01*
X0174350Y0121305D01*
X0174902Y0121856D01*
X0151028Y0117825D02*
X0136028Y0102825D01*
X0102028Y0102825D01*
X0095028Y0109825D01*
X0047028Y0109825D01*
X0045028Y0097825D02*
X0062028Y0097825D01*
X0085028Y0087825D02*
X0142028Y0087825D01*
X0155778Y0101575D01*
X0178028Y0082825D02*
X0124028Y0082825D01*
X0119028Y0077825D01*
X0043028Y0077825D01*
X0064028Y0061825D02*
X0086028Y0061825D01*
X0077028Y0069825D02*
X0077028Y0072825D01*
X0105028Y0097825D02*
X0123278Y0097825D01*
X0128278Y0074075D02*
X0128278Y0066575D01*
X0136028Y0058825D01*
X0180028Y0058825D01*
X0184028Y0054825D01*
X0169028Y0062825D02*
X0169028Y0076825D01*
X0189528Y0094075D02*
X0189528Y0097825D01*
X0220028Y0089825D02*
X0270028Y0089825D01*
X0271028Y0088825D01*
X0279028Y0082825D02*
X0283028Y0082825D01*
X0285028Y0080825D01*
X0331028Y0080825D01*
X0333028Y0078825D01*
X0337028Y0085825D02*
X0369657Y0085825D01*
X0370059Y0085423D01*
X0380059Y0085423D02*
X0382126Y0085423D01*
X0385778Y0089075D01*
X0385778Y0122825D01*
X0367028Y0110325D02*
X0367028Y0107825D01*
X0359528Y0107825D02*
X0359528Y0131575D01*
X0354528Y0127825D02*
X0354528Y0112825D01*
X0348278Y0111075D02*
X0348028Y0110825D01*
X0348278Y0111075D02*
X0348278Y0135825D01*
X0323028Y0150825D02*
X0323028Y0109825D01*
X0313028Y0106825D02*
X0310028Y0106825D01*
X0307028Y0104825D01*
X0234028Y0104825D01*
X0234028Y0105325D01*
X0283028Y0101825D02*
X0342028Y0100825D01*
X0342028Y0102825D01*
X0378028Y0102825D01*
X0380028Y0100825D01*
X0380028Y0095455D01*
X0380059Y0095423D01*
X0370059Y0075423D02*
X0369461Y0074825D01*
X0294028Y0074825D01*
X0285028Y0074825D01*
X0279028Y0055825D02*
X0273028Y0055825D01*
X0318028Y0083825D02*
X0320028Y0085825D01*
X0320028Y0086825D01*
X0325028Y0097825D02*
X0337028Y0085825D01*
X0325028Y0097825D02*
X0294028Y0097825D01*
X0338278Y0062825D02*
X0339528Y0061575D01*
X0359528Y0046575D02*
X0362028Y0046575D01*
X0329778Y0037575D02*
X0325264Y0035476D01*
X0236902Y0139856D02*
X0184902Y0139856D01*
X0211749Y0149103D02*
X0213028Y0147825D01*
X0211749Y0149103D02*
X0210902Y0151856D01*
X0236902Y0139856D02*
X0239902Y0142856D01*
X0378028Y0157825D02*
X0379028Y0156825D01*
X0150028Y0044825D02*
X0149028Y0043825D01*
X0122028Y0043825D01*
X0119028Y0040825D01*
X0114028Y0040825D01*
X0070028Y0029825D02*
X0070028Y0026825D01*
X0028028Y0043825D02*
X0028028Y0051825D01*
X0079028Y0122825D02*
X0087028Y0129825D01*
X0052028Y0125825D02*
X0051028Y0126825D01*
D21*
X0362028Y0046575D03*
X0367028Y0107825D03*
D22*
X0174902Y0121856D03*
X0042028Y0142825D03*
M02*
