G75*
%MOIN*%
%OFA0B0*%
%FSLAX25Y25*%
%IPPOS*%
%LPD*%
%AMOC8*
5,1,8,0,0,1.08239X$1,22.5*
%
%ADD10C,0.00800*%
%ADD11C,0.00787*%
%ADD12C,0.00600*%
%ADD13C,0.00300*%
%ADD14R,0.06299X0.06299*%
%ADD15R,0.85433X0.44094*%
%ADD16C,0.00591*%
%ADD17C,0.02100*%
%ADD18C,0.02400*%
%ADD19C,0.02200*%
%ADD20C,0.00100*%
%ADD21C,0.00000*%
D10*
X0016870Y0164242D02*
X0396791Y0164242D01*
D11*
X0030650Y0010698D02*
X0030743Y0010975D01*
X0030830Y0011254D01*
X0030910Y0011534D01*
X0030983Y0011817D01*
X0031049Y0012101D01*
X0031108Y0012387D01*
X0031161Y0012674D01*
X0031206Y0012963D01*
X0031244Y0013252D01*
X0031276Y0013542D01*
X0031300Y0013833D01*
X0031317Y0014125D01*
X0031327Y0014416D01*
X0031330Y0014708D01*
X0031326Y0015000D01*
X0031315Y0015292D01*
X0031296Y0015583D01*
X0031271Y0015874D01*
X0031238Y0016164D01*
X0031199Y0016453D01*
X0031152Y0016742D01*
X0031099Y0017029D01*
X0031039Y0017314D01*
X0030971Y0017598D01*
X0030897Y0017880D01*
X0030816Y0018161D01*
X0030728Y0018439D01*
X0030633Y0018715D01*
X0030532Y0018989D01*
X0030424Y0019260D01*
X0030310Y0019529D01*
X0030189Y0019795D01*
X0030061Y0020057D01*
X0029928Y0020317D01*
X0029788Y0020573D01*
X0029642Y0020826D01*
X0029489Y0021075D01*
X0029331Y0021320D01*
X0029167Y0021561D01*
X0028997Y0021799D01*
X0028821Y0022032D01*
X0028640Y0022261D01*
X0028453Y0022485D01*
X0028261Y0022705D01*
X0028063Y0022919D01*
X0027860Y0023130D01*
X0027653Y0023335D01*
X0027440Y0023535D01*
X0027223Y0023729D01*
X0027001Y0023919D01*
X0026774Y0024103D01*
X0026543Y0024281D01*
X0026308Y0024454D01*
X0026068Y0024621D01*
X0025825Y0024782D01*
X0025577Y0024937D01*
X0025327Y0025086D01*
X0025072Y0025229D01*
X0024814Y0025366D01*
X0024553Y0025497D01*
X0024289Y0025621D01*
X0024021Y0025738D01*
X0023752Y0025849D01*
X0023479Y0025954D01*
X0023204Y0026052D01*
X0022927Y0026143D01*
X0022647Y0026227D01*
X0022366Y0026304D01*
X0022082Y0026375D01*
X0021798Y0026439D01*
X0021511Y0026496D01*
X0021224Y0026546D01*
X0020935Y0026588D01*
X0020645Y0026624D01*
X0020355Y0026653D01*
X0020064Y0026675D01*
X0019772Y0026689D01*
X0019480Y0026697D01*
X0019188Y0026697D01*
X0018896Y0026691D01*
X0018605Y0026677D01*
X0018314Y0026656D01*
X0018023Y0026628D01*
X0017733Y0026593D01*
X0017444Y0026551D01*
X0017157Y0026502D01*
X0016870Y0026446D01*
X0016870Y0026447D02*
X0016870Y0164242D01*
X0121201Y0030384D02*
X0192028Y0043825D01*
X0192064Y0044119D01*
X0192108Y0044412D01*
X0192158Y0044704D01*
X0192216Y0044995D01*
X0192281Y0045284D01*
X0192353Y0045571D01*
X0192432Y0045857D01*
X0192518Y0046140D01*
X0192611Y0046421D01*
X0192711Y0046700D01*
X0192818Y0046977D01*
X0192931Y0047251D01*
X0193051Y0047521D01*
X0193178Y0047789D01*
X0193311Y0048054D01*
X0193451Y0048315D01*
X0193597Y0048573D01*
X0193750Y0048827D01*
X0193908Y0049077D01*
X0194073Y0049324D01*
X0194243Y0049566D01*
X0194420Y0049804D01*
X0194602Y0050038D01*
X0194790Y0050267D01*
X0194984Y0050491D01*
X0195183Y0050710D01*
X0195387Y0050925D01*
X0195597Y0051135D01*
X0195811Y0051339D01*
X0196031Y0051538D01*
X0196255Y0051731D01*
X0196484Y0051919D01*
X0196718Y0052102D01*
X0196956Y0052278D01*
X0197198Y0052449D01*
X0197444Y0052613D01*
X0197695Y0052772D01*
X0197949Y0052924D01*
X0198207Y0053070D01*
X0198468Y0053210D01*
X0198733Y0053343D01*
X0199001Y0053470D01*
X0199271Y0053590D01*
X0199545Y0053703D01*
X0199822Y0053810D01*
X0200101Y0053909D01*
X0200382Y0054002D01*
X0200666Y0054088D01*
X0200951Y0054167D01*
X0201239Y0054239D01*
X0201528Y0054304D01*
X0201818Y0054362D01*
X0202110Y0054413D01*
X0202403Y0054456D01*
X0202697Y0054492D01*
X0202992Y0054521D01*
X0203288Y0054543D01*
X0203584Y0054558D01*
X0203880Y0054565D01*
X0204176Y0054565D01*
X0204472Y0054558D01*
X0204768Y0054543D01*
X0205064Y0054521D01*
X0205359Y0054492D01*
X0205653Y0054456D01*
X0205946Y0054413D01*
X0206238Y0054362D01*
X0206528Y0054304D01*
X0206817Y0054239D01*
X0207105Y0054167D01*
X0207390Y0054088D01*
X0207674Y0054002D01*
X0207955Y0053909D01*
X0208234Y0053810D01*
X0208511Y0053703D01*
X0208785Y0053590D01*
X0209055Y0053470D01*
X0209323Y0053343D01*
X0209588Y0053210D01*
X0209849Y0053070D01*
X0210107Y0052924D01*
X0210361Y0052772D01*
X0210612Y0052613D01*
X0210858Y0052449D01*
X0211100Y0052278D01*
X0211338Y0052102D01*
X0211572Y0051919D01*
X0211801Y0051731D01*
X0212025Y0051538D01*
X0212245Y0051339D01*
X0212459Y0051135D01*
X0212669Y0050925D01*
X0212873Y0050710D01*
X0213072Y0050491D01*
X0213266Y0050267D01*
X0213454Y0050038D01*
X0213636Y0049804D01*
X0213813Y0049566D01*
X0213983Y0049324D01*
X0214148Y0049077D01*
X0214306Y0048827D01*
X0214459Y0048573D01*
X0214605Y0048315D01*
X0214745Y0048054D01*
X0214878Y0047789D01*
X0215005Y0047521D01*
X0215125Y0047251D01*
X0215238Y0046977D01*
X0215345Y0046700D01*
X0215445Y0046421D01*
X0215538Y0046140D01*
X0215624Y0045857D01*
X0215703Y0045571D01*
X0215775Y0045284D01*
X0215840Y0044995D01*
X0215898Y0044704D01*
X0215948Y0044412D01*
X0215992Y0044119D01*
X0216028Y0043825D01*
X0286555Y0030384D01*
X0286555Y0010699D01*
X0377106Y0010699D01*
X0377015Y0010978D01*
X0376930Y0011260D01*
X0376851Y0011544D01*
X0376780Y0011830D01*
X0376716Y0012117D01*
X0376659Y0012406D01*
X0376609Y0012696D01*
X0376566Y0012987D01*
X0376530Y0013279D01*
X0376501Y0013572D01*
X0376480Y0013865D01*
X0376465Y0014159D01*
X0376458Y0014454D01*
X0376458Y0014748D01*
X0376465Y0015042D01*
X0376479Y0015336D01*
X0376501Y0015630D01*
X0376529Y0015923D01*
X0376565Y0016215D01*
X0376608Y0016506D01*
X0376658Y0016796D01*
X0376714Y0017085D01*
X0376778Y0017372D01*
X0376849Y0017658D01*
X0376927Y0017942D01*
X0377012Y0018224D01*
X0377104Y0018503D01*
X0377202Y0018781D01*
X0377307Y0019056D01*
X0377419Y0019328D01*
X0377538Y0019597D01*
X0377662Y0019864D01*
X0377794Y0020127D01*
X0377932Y0020387D01*
X0378076Y0020644D01*
X0378226Y0020897D01*
X0378383Y0021146D01*
X0378545Y0021392D01*
X0378713Y0021633D01*
X0378888Y0021871D01*
X0379068Y0022103D01*
X0379253Y0022332D01*
X0379444Y0022556D01*
X0379641Y0022775D01*
X0379843Y0022989D01*
X0380050Y0023198D01*
X0380262Y0023403D01*
X0380479Y0023602D01*
X0380700Y0023795D01*
X0380927Y0023983D01*
X0381157Y0024166D01*
X0381393Y0024343D01*
X0381632Y0024514D01*
X0381876Y0024679D01*
X0382123Y0024838D01*
X0382375Y0024992D01*
X0382630Y0025139D01*
X0382888Y0025279D01*
X0383150Y0025414D01*
X0383415Y0025542D01*
X0383683Y0025663D01*
X0383954Y0025778D01*
X0384228Y0025886D01*
X0384504Y0025988D01*
X0384783Y0026083D01*
X0385064Y0026170D01*
X0385347Y0026252D01*
X0385632Y0026326D01*
X0385918Y0026393D01*
X0386206Y0026453D01*
X0386496Y0026506D01*
X0386787Y0026552D01*
X0387078Y0026591D01*
X0387371Y0026623D01*
X0387664Y0026648D01*
X0387958Y0026665D01*
X0388252Y0026676D01*
X0388547Y0026679D01*
X0388841Y0026675D01*
X0389135Y0026664D01*
X0389429Y0026646D01*
X0389722Y0026620D01*
X0390015Y0026588D01*
X0390306Y0026548D01*
X0390597Y0026501D01*
X0390886Y0026447D01*
X0390886Y0101250D01*
X0396791Y0101250D01*
X0396791Y0164242D01*
X0121201Y0030384D02*
X0121201Y0010699D01*
X0030650Y0010699D01*
D12*
X0123183Y0035118D02*
X0122720Y0037296D01*
X0123149Y0037956D01*
X0124782Y0038303D01*
X0125476Y0035036D01*
X0123843Y0034689D01*
X0123183Y0035118D01*
X0126844Y0035327D02*
X0126150Y0038594D01*
X0128328Y0039057D02*
X0126844Y0035327D01*
X0129022Y0035790D02*
X0128328Y0039057D01*
X0129927Y0038259D02*
X0130390Y0036081D01*
X0130043Y0037714D02*
X0132221Y0038177D01*
X0132105Y0038721D02*
X0132568Y0036544D01*
X0133936Y0036834D02*
X0136114Y0037297D01*
X0135420Y0040564D01*
X0136904Y0040310D02*
X0137135Y0039221D01*
X0137795Y0038793D01*
X0139429Y0039140D01*
X0139660Y0038051D02*
X0138966Y0041318D01*
X0137332Y0040971D01*
X0136904Y0040310D01*
X0138340Y0038908D02*
X0137482Y0037588D01*
X0141028Y0038342D02*
X0143206Y0038805D01*
X0142512Y0042072D01*
X0140334Y0041609D01*
X0141770Y0040207D02*
X0142859Y0040438D01*
X0143995Y0041818D02*
X0146636Y0040103D01*
X0146752Y0039558D01*
X0144574Y0039095D01*
X0143995Y0041818D02*
X0143880Y0042362D01*
X0146058Y0042825D01*
X0147426Y0043116D02*
X0149603Y0043579D01*
X0148515Y0043348D02*
X0149209Y0040081D01*
X0151573Y0040583D02*
X0152662Y0040815D01*
X0152117Y0040699D02*
X0151423Y0043966D01*
X0151967Y0044081D02*
X0150878Y0043850D01*
X0153335Y0044372D02*
X0154030Y0041105D01*
X0154887Y0042426D01*
X0156208Y0041568D01*
X0155513Y0044835D01*
X0156997Y0044581D02*
X0157426Y0045242D01*
X0158515Y0045473D01*
X0159175Y0045044D01*
X0159291Y0044500D01*
X0158862Y0043840D01*
X0157773Y0043608D01*
X0157344Y0042948D01*
X0157460Y0042404D01*
X0158120Y0041975D01*
X0159209Y0042206D01*
X0159638Y0042866D01*
X0158712Y0048138D02*
X0158018Y0051405D01*
X0156650Y0051114D02*
X0157228Y0048392D01*
X0156800Y0047731D01*
X0155711Y0047500D01*
X0155050Y0047929D01*
X0154472Y0050651D01*
X0153104Y0050360D02*
X0153798Y0047093D01*
X0153451Y0048727D02*
X0152362Y0048495D01*
X0150926Y0049897D02*
X0153104Y0050360D01*
X0149789Y0048518D02*
X0148469Y0049375D01*
X0147611Y0048055D01*
X0148074Y0045877D01*
X0146591Y0046130D02*
X0146162Y0045470D01*
X0145073Y0045239D01*
X0144413Y0045668D01*
X0146591Y0046130D02*
X0146128Y0048308D01*
X0145467Y0048737D01*
X0144378Y0048506D01*
X0143950Y0047845D01*
X0142466Y0048099D02*
X0140288Y0047636D01*
X0141377Y0047868D02*
X0142071Y0044601D01*
X0139499Y0044623D02*
X0138920Y0047345D01*
X0136742Y0046883D02*
X0137321Y0044160D01*
X0137981Y0043731D01*
X0139070Y0043963D01*
X0139499Y0044623D01*
X0136069Y0043325D02*
X0135374Y0046592D01*
X0133741Y0046245D01*
X0133312Y0045584D01*
X0133543Y0044495D01*
X0134204Y0044067D01*
X0135837Y0044414D01*
X0134748Y0044182D02*
X0133891Y0042862D01*
X0132523Y0042571D02*
X0131434Y0042340D01*
X0131978Y0042455D02*
X0131284Y0045722D01*
X0131828Y0045838D02*
X0130739Y0045607D01*
X0129464Y0045336D02*
X0127981Y0041606D01*
X0127286Y0044873D01*
X0126034Y0044037D02*
X0126497Y0041859D01*
X0126068Y0041199D01*
X0124979Y0040968D01*
X0124319Y0041397D01*
X0124088Y0042485D01*
X0125177Y0042717D01*
X0126034Y0044037D02*
X0125374Y0044466D01*
X0124285Y0044235D01*
X0123856Y0043574D01*
X0122407Y0040990D02*
X0122522Y0040446D01*
X0121978Y0040330D01*
X0121862Y0040874D01*
X0122407Y0040990D01*
X0121978Y0040330D02*
X0123298Y0039472D01*
X0129927Y0038259D02*
X0130785Y0039579D01*
X0132105Y0038721D01*
X0130159Y0042069D02*
X0129464Y0045336D01*
X0147727Y0047510D02*
X0149905Y0047973D01*
X0149789Y0048518D02*
X0150252Y0046340D01*
X0158712Y0048138D02*
X0160196Y0051868D01*
X0160890Y0048601D01*
X0162258Y0048892D02*
X0161795Y0051070D01*
X0162653Y0052390D01*
X0163973Y0051533D01*
X0164436Y0049355D01*
X0165804Y0049645D02*
X0165109Y0052912D01*
X0166430Y0052055D01*
X0167287Y0053375D01*
X0167982Y0050108D01*
X0164089Y0050988D02*
X0161911Y0050525D01*
X0172433Y0053331D02*
X0172317Y0053875D01*
X0172746Y0054535D01*
X0173835Y0054767D01*
X0174495Y0054338D01*
X0175863Y0054629D02*
X0176094Y0053540D01*
X0176755Y0053111D01*
X0178388Y0053458D01*
X0178620Y0052369D02*
X0177925Y0055636D01*
X0176292Y0055289D01*
X0175863Y0054629D01*
X0177299Y0053227D02*
X0176442Y0051907D01*
X0175074Y0051616D02*
X0172896Y0051153D01*
X0175074Y0051616D02*
X0172433Y0053331D01*
X0182839Y0056681D02*
X0185017Y0057144D01*
X0183928Y0056912D02*
X0184622Y0053645D01*
X0187079Y0054168D02*
X0186616Y0056346D01*
X0187474Y0057666D01*
X0188794Y0056809D01*
X0189257Y0054631D01*
X0188910Y0056264D02*
X0186732Y0055801D01*
X0194055Y0056220D02*
X0193593Y0058397D01*
X0194021Y0059058D01*
X0195655Y0059405D01*
X0196349Y0056138D01*
X0194716Y0055791D01*
X0194055Y0056220D01*
X0197717Y0056429D02*
X0199895Y0056892D01*
X0199201Y0060159D01*
X0197023Y0059696D01*
X0198459Y0058294D02*
X0199548Y0058525D01*
X0201147Y0057727D02*
X0201808Y0057298D01*
X0202896Y0057530D01*
X0203325Y0058190D01*
X0202862Y0060368D01*
X0202202Y0060797D01*
X0201113Y0060565D01*
X0200684Y0059905D01*
X0204115Y0061203D02*
X0204693Y0058481D01*
X0205353Y0058052D01*
X0206442Y0058283D01*
X0206871Y0058944D01*
X0206292Y0061666D01*
X0207776Y0061412D02*
X0208205Y0062073D01*
X0209838Y0062420D01*
X0210533Y0059153D01*
X0208899Y0058806D01*
X0208239Y0059234D01*
X0207776Y0061412D01*
X0211322Y0062166D02*
X0211751Y0062826D01*
X0212840Y0063058D01*
X0213500Y0062629D01*
X0213963Y0060451D01*
X0213534Y0059791D01*
X0212445Y0059559D01*
X0211785Y0059988D01*
X0211322Y0062166D01*
X0214868Y0062920D02*
X0215099Y0061831D01*
X0215760Y0061402D01*
X0217393Y0061749D01*
X0217625Y0060660D02*
X0216930Y0063927D01*
X0215297Y0063580D01*
X0214868Y0062920D01*
X0216304Y0061518D02*
X0215447Y0060197D01*
X0218645Y0062585D02*
X0219306Y0062156D01*
X0220939Y0062503D01*
X0221171Y0061414D02*
X0220476Y0064681D01*
X0218843Y0064334D01*
X0218414Y0063673D01*
X0218645Y0062585D01*
X0347237Y0063039D02*
X0347237Y0065266D01*
X0347794Y0065823D01*
X0349464Y0065823D01*
X0349464Y0062483D01*
X0347794Y0062483D01*
X0347237Y0063039D01*
X0350767Y0062483D02*
X0351881Y0062483D01*
X0351324Y0062483D02*
X0351324Y0065823D01*
X0351881Y0065823D02*
X0350767Y0065823D01*
X0353279Y0062483D02*
X0355506Y0062483D01*
X0355506Y0065823D01*
X0356904Y0065266D02*
X0357461Y0065823D01*
X0358574Y0065823D01*
X0359131Y0065266D01*
X0359131Y0063039D01*
X0358574Y0062483D01*
X0357461Y0062483D01*
X0356904Y0063039D01*
X0356904Y0065266D01*
X0360529Y0065266D02*
X0361086Y0065823D01*
X0362199Y0065823D01*
X0362756Y0065266D01*
X0362756Y0064709D01*
X0362199Y0064153D01*
X0361086Y0064153D01*
X0360529Y0063596D01*
X0360529Y0063039D01*
X0361086Y0062483D01*
X0362199Y0062483D01*
X0362756Y0063039D01*
X0364154Y0062483D02*
X0366381Y0062483D01*
X0366381Y0065823D01*
X0364154Y0065823D01*
X0365268Y0064153D02*
X0366381Y0064153D01*
X0367780Y0064153D02*
X0368336Y0063596D01*
X0370006Y0063596D01*
X0368893Y0063596D02*
X0367780Y0062483D01*
X0367780Y0064153D02*
X0367780Y0065266D01*
X0368336Y0065823D01*
X0370006Y0065823D01*
X0370006Y0062483D01*
X0371405Y0062483D02*
X0371405Y0064709D01*
X0372518Y0065823D01*
X0373631Y0064709D01*
X0373631Y0062483D01*
X0375030Y0063039D02*
X0375030Y0065823D01*
X0373631Y0064153D02*
X0371405Y0064153D01*
X0375030Y0063039D02*
X0375587Y0062483D01*
X0376700Y0062483D01*
X0377256Y0063039D01*
X0377256Y0065823D01*
X0378655Y0065266D02*
X0378655Y0063039D01*
X0379212Y0062483D01*
X0380325Y0062483D01*
X0380882Y0063039D01*
X0380882Y0065266D01*
X0380325Y0065823D01*
X0379212Y0065823D01*
X0378655Y0065266D01*
X0379768Y0063596D02*
X0378655Y0062483D01*
X0378655Y0059917D02*
X0378655Y0057134D01*
X0379212Y0056577D01*
X0380325Y0056577D01*
X0380882Y0057134D01*
X0380882Y0059917D01*
X0382280Y0059360D02*
X0382837Y0059917D01*
X0384507Y0059917D01*
X0384507Y0056577D01*
X0382837Y0056577D01*
X0382280Y0057134D01*
X0382280Y0059360D01*
X0382837Y0062483D02*
X0383950Y0062483D01*
X0384507Y0063039D01*
X0383950Y0064153D02*
X0382837Y0064153D01*
X0382280Y0063596D01*
X0382280Y0063039D01*
X0382837Y0062483D01*
X0383950Y0064153D02*
X0384507Y0064709D01*
X0384507Y0065266D01*
X0383950Y0065823D01*
X0382837Y0065823D01*
X0382280Y0065266D01*
X0376700Y0059917D02*
X0377256Y0059360D01*
X0377256Y0058804D01*
X0376700Y0058247D01*
X0375587Y0058247D01*
X0375030Y0057691D01*
X0375030Y0057134D01*
X0375587Y0056577D01*
X0376700Y0056577D01*
X0377256Y0057134D01*
X0376700Y0059917D02*
X0375587Y0059917D01*
X0375030Y0059360D01*
X0372518Y0059917D02*
X0371405Y0059917D01*
X0371961Y0059917D02*
X0371961Y0057134D01*
X0372518Y0056577D01*
X0373075Y0056577D01*
X0373631Y0057134D01*
X0373631Y0054012D02*
X0371405Y0054012D01*
X0372518Y0054012D02*
X0372518Y0050672D01*
X0370006Y0050672D02*
X0368893Y0050672D01*
X0369450Y0050672D02*
X0369450Y0054012D01*
X0370006Y0054012D02*
X0368893Y0054012D01*
X0367589Y0053455D02*
X0367033Y0054012D01*
X0365920Y0054012D01*
X0365363Y0053455D01*
X0363964Y0053455D02*
X0363964Y0051228D01*
X0363408Y0050672D01*
X0362294Y0050672D01*
X0361738Y0051228D01*
X0361738Y0053455D01*
X0362294Y0054012D01*
X0363408Y0054012D01*
X0363964Y0053455D01*
X0365363Y0051228D02*
X0365920Y0050672D01*
X0367033Y0050672D01*
X0367589Y0051228D01*
X0367589Y0053455D01*
X0375030Y0054012D02*
X0375030Y0050672D01*
X0377256Y0054012D01*
X0377256Y0050672D01*
X0378655Y0050672D02*
X0378655Y0052898D01*
X0379768Y0054012D01*
X0380882Y0052898D01*
X0380882Y0050672D01*
X0382280Y0050672D02*
X0382280Y0054012D01*
X0383393Y0052898D01*
X0384507Y0054012D01*
X0384507Y0050672D01*
X0383393Y0048106D02*
X0382280Y0046993D01*
X0382280Y0044766D01*
X0380882Y0044766D02*
X0380882Y0048106D01*
X0378655Y0044766D01*
X0378655Y0048106D01*
X0377256Y0048106D02*
X0377256Y0045880D01*
X0376143Y0044766D01*
X0375030Y0045880D01*
X0375030Y0048106D01*
X0373631Y0048106D02*
X0372518Y0046993D01*
X0371405Y0048106D01*
X0371405Y0044766D01*
X0370006Y0044766D02*
X0370006Y0046993D01*
X0368893Y0048106D01*
X0367780Y0046993D01*
X0367780Y0044766D01*
X0367780Y0046436D02*
X0370006Y0046436D01*
X0373631Y0044766D02*
X0373631Y0048106D01*
X0373631Y0042201D02*
X0372518Y0042201D01*
X0373075Y0042201D02*
X0373075Y0038861D01*
X0373631Y0038861D02*
X0372518Y0038861D01*
X0371215Y0038861D02*
X0371215Y0042201D01*
X0369545Y0042201D01*
X0368988Y0041644D01*
X0368988Y0040531D01*
X0369545Y0039974D01*
X0371215Y0039974D01*
X0370101Y0039974D02*
X0368988Y0038861D01*
X0367589Y0038861D02*
X0365363Y0038861D01*
X0363964Y0038861D02*
X0363964Y0042201D01*
X0361738Y0038861D01*
X0361738Y0042201D01*
X0360339Y0042201D02*
X0358669Y0042201D01*
X0358113Y0041644D01*
X0358113Y0039417D01*
X0358669Y0038861D01*
X0360339Y0038861D01*
X0360339Y0042201D01*
X0356714Y0042201D02*
X0356714Y0038861D01*
X0354487Y0038861D01*
X0353089Y0038861D02*
X0353089Y0042201D01*
X0351419Y0042201D01*
X0350862Y0041644D01*
X0350862Y0040531D01*
X0351419Y0039974D01*
X0353089Y0039974D01*
X0351976Y0039974D02*
X0350862Y0038861D01*
X0354487Y0035738D02*
X0355044Y0036295D01*
X0356157Y0036295D01*
X0356714Y0035738D01*
X0356714Y0035182D01*
X0356157Y0034625D01*
X0355044Y0034625D01*
X0354487Y0034069D01*
X0354487Y0033512D01*
X0355044Y0032955D01*
X0356157Y0032955D01*
X0356714Y0033512D01*
X0358113Y0033512D02*
X0358669Y0032955D01*
X0360339Y0032955D01*
X0360339Y0036295D01*
X0358669Y0036295D01*
X0358113Y0035738D01*
X0358113Y0035182D01*
X0358669Y0034625D01*
X0360339Y0034625D01*
X0361738Y0034625D02*
X0363964Y0034625D01*
X0363964Y0035182D02*
X0362851Y0036295D01*
X0361738Y0035182D01*
X0361738Y0032955D01*
X0363964Y0032955D02*
X0363964Y0035182D01*
X0365363Y0032955D02*
X0367589Y0032955D01*
X0367589Y0036295D01*
X0368893Y0036295D02*
X0370006Y0036295D01*
X0369450Y0036295D02*
X0369450Y0032955D01*
X0370006Y0032955D02*
X0368893Y0032955D01*
X0371405Y0033512D02*
X0371405Y0035738D01*
X0371961Y0036295D01*
X0373631Y0036295D01*
X0373631Y0032955D01*
X0371961Y0032955D01*
X0371405Y0033512D01*
X0375030Y0033512D02*
X0375030Y0036295D01*
X0377256Y0036295D02*
X0377256Y0033512D01*
X0376700Y0032955D01*
X0375587Y0032955D01*
X0375030Y0033512D01*
X0378655Y0032955D02*
X0378655Y0035182D01*
X0379768Y0036295D01*
X0380882Y0035182D01*
X0380882Y0032955D01*
X0382280Y0033512D02*
X0382837Y0032955D01*
X0383950Y0032955D01*
X0384507Y0033512D01*
X0384507Y0035738D01*
X0383950Y0036295D01*
X0382837Y0036295D01*
X0382280Y0035738D01*
X0382280Y0034625D02*
X0383393Y0034625D01*
X0382280Y0034625D02*
X0382280Y0033512D01*
X0380882Y0034625D02*
X0378655Y0034625D01*
X0378655Y0038861D02*
X0378655Y0042201D01*
X0377256Y0042201D02*
X0375030Y0042201D01*
X0376143Y0042201D02*
X0376143Y0038861D01*
X0378655Y0038861D02*
X0380882Y0042201D01*
X0380882Y0038861D01*
X0382280Y0038861D02*
X0382280Y0041087D01*
X0383393Y0042201D01*
X0384507Y0041087D01*
X0384507Y0038861D01*
X0384507Y0040531D02*
X0382280Y0040531D01*
X0384507Y0044766D02*
X0384507Y0046993D01*
X0383393Y0048106D01*
X0382280Y0046436D02*
X0384507Y0046436D01*
X0380882Y0052342D02*
X0378655Y0052342D01*
X0370006Y0056577D02*
X0370006Y0058804D01*
X0368893Y0059917D01*
X0367780Y0058804D01*
X0367780Y0056577D01*
X0366381Y0057134D02*
X0366381Y0059360D01*
X0365824Y0059917D01*
X0364711Y0059917D01*
X0364154Y0059360D01*
X0364154Y0058247D02*
X0365268Y0058247D01*
X0364154Y0058247D02*
X0364154Y0057134D01*
X0364711Y0056577D01*
X0365824Y0056577D01*
X0366381Y0057134D01*
X0367780Y0058247D02*
X0370006Y0058247D01*
X0362756Y0057691D02*
X0361086Y0057691D01*
X0360529Y0058247D01*
X0360529Y0059360D01*
X0361086Y0059917D01*
X0362756Y0059917D01*
X0362756Y0056577D01*
X0361643Y0057691D02*
X0360529Y0056577D01*
X0360339Y0054012D02*
X0358669Y0054012D01*
X0358113Y0053455D01*
X0358113Y0052342D01*
X0358669Y0051785D01*
X0360339Y0051785D01*
X0359226Y0051785D02*
X0358113Y0050672D01*
X0356714Y0050672D02*
X0354487Y0050672D01*
X0355601Y0052342D02*
X0356714Y0052342D01*
X0356714Y0054012D02*
X0356714Y0050672D01*
X0360339Y0050672D02*
X0360339Y0054012D01*
X0356714Y0054012D02*
X0354487Y0054012D01*
X0354487Y0042201D02*
X0356714Y0042201D01*
X0356714Y0040531D02*
X0355601Y0040531D01*
X0358669Y0034625D02*
X0358113Y0034069D01*
X0358113Y0033512D01*
X0366476Y0040531D02*
X0367589Y0040531D01*
X0367589Y0042201D02*
X0367589Y0038861D01*
X0367589Y0042201D02*
X0365363Y0042201D01*
D13*
X0081329Y0017149D02*
X0081329Y0015248D01*
X0080378Y0014297D01*
X0079427Y0015248D01*
X0079427Y0017149D01*
X0078429Y0015723D02*
X0078429Y0014773D01*
X0077953Y0014297D01*
X0077002Y0014297D01*
X0076527Y0015248D02*
X0078429Y0015248D01*
X0078429Y0015723D02*
X0077953Y0016199D01*
X0077002Y0016199D01*
X0076527Y0015723D01*
X0076527Y0015248D01*
X0075528Y0015248D02*
X0074578Y0016199D01*
X0074102Y0016199D01*
X0073112Y0015723D02*
X0072636Y0016199D01*
X0071210Y0016199D01*
X0070212Y0016199D02*
X0069736Y0016199D01*
X0069736Y0014297D01*
X0069261Y0014297D02*
X0070212Y0014297D01*
X0071210Y0014773D02*
X0071686Y0015248D01*
X0072636Y0015248D01*
X0073112Y0015723D01*
X0073112Y0014297D02*
X0071686Y0014297D01*
X0071210Y0014773D01*
X0069736Y0017149D02*
X0069736Y0017625D01*
X0068278Y0015723D02*
X0068278Y0014773D01*
X0067803Y0014297D01*
X0066852Y0014297D01*
X0066377Y0014773D01*
X0066377Y0015723D01*
X0066852Y0016199D01*
X0067803Y0016199D01*
X0068278Y0015723D01*
X0065378Y0016199D02*
X0065378Y0014297D01*
X0063477Y0014297D02*
X0063477Y0015723D01*
X0063952Y0016199D01*
X0065378Y0016199D01*
X0059578Y0016199D02*
X0058627Y0017149D01*
X0058627Y0014297D01*
X0059578Y0014297D02*
X0057676Y0014297D01*
X0056678Y0014297D02*
X0056202Y0014297D01*
X0056202Y0014773D01*
X0056678Y0014773D01*
X0056678Y0014297D01*
X0055228Y0014773D02*
X0053326Y0016674D01*
X0053326Y0014773D01*
X0053802Y0014297D01*
X0054752Y0014297D01*
X0055228Y0014773D01*
X0055228Y0016674D01*
X0054752Y0017149D01*
X0053802Y0017149D01*
X0053326Y0016674D01*
X0051852Y0014773D02*
X0051852Y0014297D01*
X0051377Y0014297D01*
X0051377Y0014773D01*
X0051852Y0014773D01*
X0051377Y0014297D02*
X0052328Y0013347D01*
X0047494Y0014297D02*
X0045593Y0016199D01*
X0045593Y0016674D01*
X0046068Y0017149D01*
X0047019Y0017149D01*
X0047494Y0016674D01*
X0047494Y0014297D02*
X0045593Y0014297D01*
X0044594Y0014773D02*
X0042693Y0016674D01*
X0042693Y0014773D01*
X0043168Y0014297D01*
X0044119Y0014297D01*
X0044594Y0014773D01*
X0044594Y0016674D01*
X0044119Y0017149D01*
X0043168Y0017149D01*
X0042693Y0016674D01*
X0041694Y0016199D02*
X0040743Y0017149D01*
X0040743Y0014297D01*
X0041694Y0014297D02*
X0039792Y0014297D01*
X0038794Y0014773D02*
X0038318Y0014297D01*
X0037368Y0014297D01*
X0036892Y0014773D01*
X0036892Y0015248D01*
X0037368Y0015723D01*
X0038794Y0015723D01*
X0038794Y0014773D01*
X0038794Y0015723D02*
X0037843Y0016674D01*
X0036892Y0017149D01*
X0075528Y0016199D02*
X0075528Y0014297D01*
D14*
G36*
X0111723Y0117028D02*
X0106270Y0120177D01*
X0109419Y0125630D01*
X0114872Y0122481D01*
X0111723Y0117028D01*
G37*
G36*
X0131014Y0125630D02*
X0134163Y0120177D01*
X0128710Y0117028D01*
X0125561Y0122481D01*
X0131014Y0125630D01*
G37*
G36*
X0129104Y0160275D02*
X0134557Y0157126D01*
X0131408Y0151673D01*
X0125955Y0154822D01*
X0129104Y0160275D01*
G37*
G36*
X0108631Y0151280D02*
X0105482Y0156733D01*
X0110935Y0159882D01*
X0114084Y0154429D01*
X0108631Y0151280D01*
G37*
G36*
X0275561Y0150886D02*
X0272412Y0156339D01*
X0277865Y0159488D01*
X0281014Y0154035D01*
X0275561Y0150886D01*
G37*
G36*
X0296033Y0159882D02*
X0301486Y0156733D01*
X0298337Y0151280D01*
X0292884Y0154429D01*
X0296033Y0159882D01*
G37*
G36*
X0298337Y0125630D02*
X0301486Y0120177D01*
X0296033Y0117028D01*
X0292884Y0122481D01*
X0298337Y0125630D01*
G37*
G36*
X0278258Y0117028D02*
X0272805Y0120177D01*
X0275954Y0125630D01*
X0281407Y0122481D01*
X0278258Y0117028D01*
G37*
D15*
X0204862Y0138652D03*
D16*
X0331238Y0058832D02*
X0334596Y0058832D01*
X0335048Y0054386D01*
X0336054Y0054095D01*
X0337021Y0053694D01*
X0337937Y0053190D01*
X0341401Y0056014D01*
X0343776Y0053639D01*
X0340952Y0050176D01*
X0341456Y0049259D01*
X0341857Y0048292D01*
X0342148Y0047287D01*
X0346594Y0046835D01*
X0346594Y0043476D01*
X0342148Y0043024D01*
X0341857Y0042019D01*
X0341456Y0041052D01*
X0340952Y0040135D01*
X0343776Y0036672D01*
X0341401Y0034297D01*
X0337937Y0037121D01*
X0337255Y0036733D01*
X0336543Y0036403D01*
X0334565Y0041177D01*
X0335208Y0041509D01*
X0335787Y0041945D01*
X0336284Y0042471D01*
X0336686Y0043073D01*
X0336982Y0043733D01*
X0337163Y0044434D01*
X0337224Y0045156D01*
X0337148Y0045960D01*
X0336923Y0046735D01*
X0336558Y0047455D01*
X0336065Y0048095D01*
X0335460Y0048631D01*
X0334767Y0049044D01*
X0334008Y0049321D01*
X0333211Y0049452D01*
X0332404Y0049431D01*
X0331615Y0049260D01*
X0330871Y0048945D01*
X0330200Y0048496D01*
X0329624Y0047930D01*
X0329164Y0047266D01*
X0328836Y0046528D01*
X0328651Y0045742D01*
X0328617Y0044935D01*
X0328734Y0044136D01*
X0328997Y0043373D01*
X0329399Y0042672D01*
X0329925Y0042059D01*
X0330555Y0041555D01*
X0331269Y0041177D01*
X0329292Y0036403D01*
X0328580Y0036733D01*
X0327897Y0037121D01*
X0324434Y0034297D01*
X0322059Y0036672D01*
X0324883Y0040135D01*
X0324378Y0041052D01*
X0323978Y0042019D01*
X0323687Y0043024D01*
X0319241Y0043476D01*
X0319241Y0046835D01*
X0323687Y0047287D01*
X0323978Y0048292D01*
X0324378Y0049259D01*
X0324883Y0050176D01*
X0322059Y0053639D01*
X0324434Y0056014D01*
X0327897Y0053190D01*
X0328814Y0053694D01*
X0329781Y0054095D01*
X0330786Y0054386D01*
X0331238Y0058832D01*
X0331233Y0058786D02*
X0334601Y0058786D01*
X0334661Y0058197D02*
X0331174Y0058197D01*
X0331114Y0057608D02*
X0334721Y0057608D01*
X0334781Y0057019D02*
X0331054Y0057019D01*
X0330994Y0056429D02*
X0334841Y0056429D01*
X0334901Y0055840D02*
X0330934Y0055840D01*
X0330874Y0055251D02*
X0334960Y0055251D01*
X0335020Y0054662D02*
X0330814Y0054662D01*
X0329729Y0054073D02*
X0336106Y0054073D01*
X0337403Y0053484D02*
X0328432Y0053484D01*
X0327536Y0053484D02*
X0322185Y0053484D01*
X0322493Y0054073D02*
X0326814Y0054073D01*
X0326091Y0054662D02*
X0323082Y0054662D01*
X0323671Y0055251D02*
X0325369Y0055251D01*
X0324646Y0055840D02*
X0324261Y0055840D01*
X0322666Y0052895D02*
X0343169Y0052895D01*
X0342689Y0052306D02*
X0323146Y0052306D01*
X0323626Y0051717D02*
X0342208Y0051717D01*
X0341728Y0051128D02*
X0324107Y0051128D01*
X0324587Y0050539D02*
X0341248Y0050539D01*
X0341076Y0049950D02*
X0324759Y0049950D01*
X0324435Y0049361D02*
X0332080Y0049361D01*
X0330613Y0048772D02*
X0324177Y0048772D01*
X0323946Y0048183D02*
X0329881Y0048183D01*
X0329391Y0047594D02*
X0323776Y0047594D01*
X0320911Y0047004D02*
X0329048Y0047004D01*
X0328809Y0046415D02*
X0319241Y0046415D01*
X0319241Y0045826D02*
X0328671Y0045826D01*
X0328630Y0045237D02*
X0319241Y0045237D01*
X0319241Y0044648D02*
X0328659Y0044648D01*
X0328760Y0044059D02*
X0319241Y0044059D01*
X0319302Y0043470D02*
X0328964Y0043470D01*
X0329280Y0042881D02*
X0323728Y0042881D01*
X0323899Y0042292D02*
X0329725Y0042292D01*
X0330370Y0041703D02*
X0324109Y0041703D01*
X0324353Y0041114D02*
X0331243Y0041114D01*
X0330999Y0040525D02*
X0324669Y0040525D01*
X0324720Y0039936D02*
X0330755Y0039936D01*
X0330511Y0039347D02*
X0324240Y0039347D01*
X0323760Y0038758D02*
X0330267Y0038758D01*
X0330023Y0038169D02*
X0323279Y0038169D01*
X0322799Y0037579D02*
X0329779Y0037579D01*
X0329535Y0036990D02*
X0328127Y0036990D01*
X0327737Y0036990D02*
X0322319Y0036990D01*
X0322330Y0036401D02*
X0327014Y0036401D01*
X0326292Y0035812D02*
X0322919Y0035812D01*
X0323508Y0035223D02*
X0325570Y0035223D01*
X0324847Y0034634D02*
X0324097Y0034634D01*
X0335324Y0039347D02*
X0341595Y0039347D01*
X0341114Y0039936D02*
X0335080Y0039936D01*
X0334836Y0040525D02*
X0341166Y0040525D01*
X0341482Y0041114D02*
X0334592Y0041114D01*
X0335466Y0041703D02*
X0341726Y0041703D01*
X0341936Y0042292D02*
X0336115Y0042292D01*
X0336558Y0042881D02*
X0342106Y0042881D01*
X0342075Y0038758D02*
X0335568Y0038758D01*
X0335812Y0038169D02*
X0342555Y0038169D01*
X0343036Y0037579D02*
X0336056Y0037579D01*
X0336300Y0036990D02*
X0337707Y0036990D01*
X0338098Y0036990D02*
X0343516Y0036990D01*
X0343505Y0036401D02*
X0338820Y0036401D01*
X0339543Y0035812D02*
X0342916Y0035812D01*
X0342327Y0035223D02*
X0340265Y0035223D01*
X0340988Y0034634D02*
X0341738Y0034634D01*
X0346532Y0043470D02*
X0336864Y0043470D01*
X0337066Y0044059D02*
X0346594Y0044059D01*
X0346594Y0044648D02*
X0337181Y0044648D01*
X0337216Y0045237D02*
X0346594Y0045237D01*
X0346594Y0045826D02*
X0337160Y0045826D01*
X0337016Y0046415D02*
X0346594Y0046415D01*
X0344923Y0047004D02*
X0336787Y0047004D01*
X0336451Y0047594D02*
X0342059Y0047594D01*
X0341888Y0048183D02*
X0335965Y0048183D01*
X0335224Y0048772D02*
X0341658Y0048772D01*
X0341400Y0049361D02*
X0333767Y0049361D01*
X0338298Y0053484D02*
X0343649Y0053484D01*
X0343341Y0054073D02*
X0339021Y0054073D01*
X0339743Y0054662D02*
X0342752Y0054662D01*
X0342163Y0055251D02*
X0340466Y0055251D01*
X0341188Y0055840D02*
X0341574Y0055840D01*
D17*
X0343628Y0125325D02*
X0343828Y0125325D01*
X0365828Y0125325D01*
X0368728Y0127725D02*
X0368728Y0149625D01*
X0368733Y0149726D01*
X0368735Y0149827D01*
X0368733Y0149929D01*
X0368727Y0150030D01*
X0368718Y0150130D01*
X0368705Y0150231D01*
X0368688Y0150331D01*
X0368667Y0150430D01*
X0368642Y0150528D01*
X0368614Y0150625D01*
X0368583Y0150721D01*
X0368547Y0150816D01*
X0368508Y0150910D01*
X0368466Y0151002D01*
X0368420Y0151092D01*
X0368371Y0151181D01*
X0368319Y0151267D01*
X0368264Y0151352D01*
X0368205Y0151435D01*
X0368143Y0151515D01*
X0368079Y0151593D01*
X0368011Y0151668D01*
X0367941Y0151741D01*
X0367868Y0151811D01*
X0367792Y0151879D01*
X0367714Y0151943D01*
X0367634Y0152005D01*
X0367551Y0152063D01*
X0367466Y0152119D01*
X0367380Y0152171D01*
X0367291Y0152220D01*
X0367200Y0152265D01*
X0367108Y0152307D01*
X0367015Y0152346D01*
X0366920Y0152381D01*
X0366824Y0152413D01*
X0366726Y0152441D01*
X0366628Y0152465D01*
X0366529Y0152485D01*
X0366429Y0152502D01*
X0366329Y0152515D01*
X0366228Y0152525D01*
X0344428Y0152525D01*
X0344328Y0152525D02*
X0344227Y0152530D01*
X0344126Y0152532D01*
X0344024Y0152530D01*
X0343923Y0152524D01*
X0343823Y0152515D01*
X0343722Y0152502D01*
X0343622Y0152485D01*
X0343523Y0152464D01*
X0343425Y0152439D01*
X0343328Y0152411D01*
X0343232Y0152380D01*
X0343137Y0152344D01*
X0343043Y0152305D01*
X0342951Y0152263D01*
X0342861Y0152217D01*
X0342772Y0152168D01*
X0342686Y0152116D01*
X0342601Y0152061D01*
X0342518Y0152002D01*
X0342438Y0151940D01*
X0342360Y0151876D01*
X0342285Y0151808D01*
X0342212Y0151738D01*
X0342142Y0151665D01*
X0342074Y0151589D01*
X0342010Y0151511D01*
X0341948Y0151431D01*
X0341890Y0151348D01*
X0341834Y0151263D01*
X0341782Y0151177D01*
X0341733Y0151088D01*
X0341688Y0150997D01*
X0341646Y0150905D01*
X0341607Y0150812D01*
X0341572Y0150717D01*
X0341540Y0150621D01*
X0341512Y0150523D01*
X0341488Y0150425D01*
X0341468Y0150326D01*
X0341451Y0150226D01*
X0341438Y0150126D01*
X0341428Y0150025D01*
X0341428Y0128225D01*
X0341427Y0128125D02*
X0341421Y0128025D01*
X0341419Y0127925D01*
X0341421Y0127825D01*
X0341427Y0127726D01*
X0341436Y0127626D01*
X0341449Y0127527D01*
X0341466Y0127429D01*
X0341487Y0127331D01*
X0341512Y0127234D01*
X0341540Y0127138D01*
X0341572Y0127044D01*
X0341608Y0126950D01*
X0341647Y0126858D01*
X0341689Y0126768D01*
X0341735Y0126679D01*
X0341785Y0126592D01*
X0341837Y0126507D01*
X0341893Y0126425D01*
X0341952Y0126344D01*
X0342014Y0126266D01*
X0342079Y0126190D01*
X0342147Y0126116D01*
X0342218Y0126046D01*
X0342291Y0125978D01*
X0342367Y0125913D01*
X0342445Y0125851D01*
X0342526Y0125792D01*
X0342609Y0125736D01*
X0342694Y0125683D01*
X0342781Y0125634D01*
X0342869Y0125588D01*
X0342960Y0125545D01*
X0343052Y0125506D01*
X0343145Y0125470D01*
X0343240Y0125438D01*
X0343336Y0125410D01*
X0343432Y0125385D01*
X0343530Y0125365D01*
X0343629Y0125347D01*
X0343728Y0125334D01*
X0343827Y0125325D01*
X0365828Y0125325D02*
X0365929Y0125320D01*
X0366030Y0125318D01*
X0366132Y0125320D01*
X0366233Y0125326D01*
X0366333Y0125335D01*
X0366434Y0125348D01*
X0366534Y0125365D01*
X0366633Y0125386D01*
X0366731Y0125411D01*
X0366828Y0125439D01*
X0366924Y0125470D01*
X0367019Y0125506D01*
X0367113Y0125545D01*
X0367205Y0125587D01*
X0367295Y0125633D01*
X0367384Y0125682D01*
X0367470Y0125734D01*
X0367555Y0125789D01*
X0367638Y0125848D01*
X0367718Y0125910D01*
X0367796Y0125974D01*
X0367871Y0126042D01*
X0367944Y0126112D01*
X0368014Y0126185D01*
X0368082Y0126261D01*
X0368146Y0126339D01*
X0368208Y0126419D01*
X0368266Y0126502D01*
X0368322Y0126587D01*
X0368374Y0126673D01*
X0368423Y0126762D01*
X0368468Y0126853D01*
X0368510Y0126945D01*
X0368549Y0127038D01*
X0368584Y0127133D01*
X0368616Y0127229D01*
X0368644Y0127327D01*
X0368668Y0127425D01*
X0368688Y0127524D01*
X0368705Y0127624D01*
X0368718Y0127724D01*
X0368728Y0127825D01*
D18*
X0355028Y0131325D02*
X0355028Y0139425D01*
X0355528Y0139725D02*
X0354328Y0139725D01*
X0355028Y0138525D02*
X0367828Y0151425D01*
X0355128Y0138425D02*
X0342228Y0151225D01*
D19*
X0342928Y0151825D02*
X0344128Y0149425D01*
X0366128Y0149825D02*
X0366828Y0152025D01*
D20*
X0356168Y0131225D02*
X0353878Y0131235D01*
X0353878Y0130535D01*
X0355728Y0129625D01*
X0356168Y0129625D01*
X0356168Y0131225D01*
X0356168Y0131185D02*
X0353878Y0131185D01*
X0353878Y0131087D02*
X0356168Y0131087D01*
X0356168Y0130988D02*
X0353878Y0130988D01*
X0353878Y0130890D02*
X0356168Y0130890D01*
X0356168Y0130791D02*
X0353878Y0130791D01*
X0353878Y0130692D02*
X0356168Y0130692D01*
X0356168Y0130594D02*
X0353878Y0130594D01*
X0353958Y0130495D02*
X0356168Y0130495D01*
X0356168Y0130397D02*
X0354158Y0130397D01*
X0354358Y0130298D02*
X0356168Y0130298D01*
X0356168Y0130200D02*
X0354559Y0130200D01*
X0354759Y0130101D02*
X0356168Y0130101D01*
X0356168Y0130003D02*
X0354959Y0130003D01*
X0355159Y0129904D02*
X0356168Y0129904D01*
X0356168Y0129806D02*
X0355360Y0129806D01*
X0355560Y0129707D02*
X0356168Y0129707D01*
D21*
X0095217Y0044557D02*
X0095219Y0044654D01*
X0095225Y0044751D01*
X0095235Y0044847D01*
X0095249Y0044943D01*
X0095267Y0045039D01*
X0095288Y0045133D01*
X0095314Y0045227D01*
X0095343Y0045319D01*
X0095377Y0045410D01*
X0095413Y0045500D01*
X0095454Y0045588D01*
X0095498Y0045674D01*
X0095546Y0045759D01*
X0095597Y0045841D01*
X0095651Y0045922D01*
X0095709Y0046000D01*
X0095770Y0046075D01*
X0095833Y0046148D01*
X0095900Y0046219D01*
X0095970Y0046286D01*
X0096042Y0046351D01*
X0096117Y0046412D01*
X0096195Y0046471D01*
X0096274Y0046526D01*
X0096356Y0046578D01*
X0096440Y0046626D01*
X0096526Y0046671D01*
X0096614Y0046713D01*
X0096703Y0046751D01*
X0096794Y0046785D01*
X0096886Y0046815D01*
X0096979Y0046842D01*
X0097074Y0046864D01*
X0097169Y0046883D01*
X0097265Y0046898D01*
X0097361Y0046909D01*
X0097458Y0046916D01*
X0097555Y0046919D01*
X0097652Y0046918D01*
X0097749Y0046913D01*
X0097845Y0046904D01*
X0097941Y0046891D01*
X0098037Y0046874D01*
X0098132Y0046853D01*
X0098225Y0046829D01*
X0098318Y0046800D01*
X0098410Y0046768D01*
X0098500Y0046732D01*
X0098588Y0046693D01*
X0098675Y0046649D01*
X0098760Y0046603D01*
X0098843Y0046552D01*
X0098924Y0046499D01*
X0099002Y0046442D01*
X0099079Y0046382D01*
X0099152Y0046319D01*
X0099223Y0046253D01*
X0099291Y0046184D01*
X0099357Y0046112D01*
X0099419Y0046038D01*
X0099478Y0045961D01*
X0099534Y0045882D01*
X0099587Y0045800D01*
X0099637Y0045717D01*
X0099682Y0045631D01*
X0099725Y0045544D01*
X0099764Y0045455D01*
X0099799Y0045365D01*
X0099830Y0045273D01*
X0099857Y0045180D01*
X0099881Y0045086D01*
X0099901Y0044991D01*
X0099917Y0044895D01*
X0099929Y0044799D01*
X0099937Y0044702D01*
X0099941Y0044605D01*
X0099941Y0044509D01*
X0099937Y0044412D01*
X0099929Y0044315D01*
X0099917Y0044219D01*
X0099901Y0044123D01*
X0099881Y0044028D01*
X0099857Y0043934D01*
X0099830Y0043841D01*
X0099799Y0043749D01*
X0099764Y0043659D01*
X0099725Y0043570D01*
X0099682Y0043483D01*
X0099637Y0043397D01*
X0099587Y0043314D01*
X0099534Y0043232D01*
X0099478Y0043153D01*
X0099419Y0043076D01*
X0099357Y0043002D01*
X0099291Y0042930D01*
X0099223Y0042861D01*
X0099152Y0042795D01*
X0099079Y0042732D01*
X0099002Y0042672D01*
X0098924Y0042615D01*
X0098843Y0042562D01*
X0098760Y0042511D01*
X0098675Y0042465D01*
X0098588Y0042421D01*
X0098500Y0042382D01*
X0098410Y0042346D01*
X0098318Y0042314D01*
X0098225Y0042285D01*
X0098132Y0042261D01*
X0098037Y0042240D01*
X0097941Y0042223D01*
X0097845Y0042210D01*
X0097749Y0042201D01*
X0097652Y0042196D01*
X0097555Y0042195D01*
X0097458Y0042198D01*
X0097361Y0042205D01*
X0097265Y0042216D01*
X0097169Y0042231D01*
X0097074Y0042250D01*
X0096979Y0042272D01*
X0096886Y0042299D01*
X0096794Y0042329D01*
X0096703Y0042363D01*
X0096614Y0042401D01*
X0096526Y0042443D01*
X0096440Y0042488D01*
X0096356Y0042536D01*
X0096274Y0042588D01*
X0096195Y0042643D01*
X0096117Y0042702D01*
X0096042Y0042763D01*
X0095970Y0042828D01*
X0095900Y0042895D01*
X0095833Y0042966D01*
X0095770Y0043039D01*
X0095709Y0043114D01*
X0095651Y0043192D01*
X0095597Y0043273D01*
X0095546Y0043355D01*
X0095498Y0043440D01*
X0095454Y0043526D01*
X0095413Y0043614D01*
X0095377Y0043704D01*
X0095343Y0043795D01*
X0095314Y0043887D01*
X0095288Y0043981D01*
X0095267Y0044075D01*
X0095249Y0044171D01*
X0095235Y0044267D01*
X0095225Y0044363D01*
X0095219Y0044460D01*
X0095217Y0044557D01*
X0095217Y0020935D02*
X0095219Y0021032D01*
X0095225Y0021129D01*
X0095235Y0021225D01*
X0095249Y0021321D01*
X0095267Y0021417D01*
X0095288Y0021511D01*
X0095314Y0021605D01*
X0095343Y0021697D01*
X0095377Y0021788D01*
X0095413Y0021878D01*
X0095454Y0021966D01*
X0095498Y0022052D01*
X0095546Y0022137D01*
X0095597Y0022219D01*
X0095651Y0022300D01*
X0095709Y0022378D01*
X0095770Y0022453D01*
X0095833Y0022526D01*
X0095900Y0022597D01*
X0095970Y0022664D01*
X0096042Y0022729D01*
X0096117Y0022790D01*
X0096195Y0022849D01*
X0096274Y0022904D01*
X0096356Y0022956D01*
X0096440Y0023004D01*
X0096526Y0023049D01*
X0096614Y0023091D01*
X0096703Y0023129D01*
X0096794Y0023163D01*
X0096886Y0023193D01*
X0096979Y0023220D01*
X0097074Y0023242D01*
X0097169Y0023261D01*
X0097265Y0023276D01*
X0097361Y0023287D01*
X0097458Y0023294D01*
X0097555Y0023297D01*
X0097652Y0023296D01*
X0097749Y0023291D01*
X0097845Y0023282D01*
X0097941Y0023269D01*
X0098037Y0023252D01*
X0098132Y0023231D01*
X0098225Y0023207D01*
X0098318Y0023178D01*
X0098410Y0023146D01*
X0098500Y0023110D01*
X0098588Y0023071D01*
X0098675Y0023027D01*
X0098760Y0022981D01*
X0098843Y0022930D01*
X0098924Y0022877D01*
X0099002Y0022820D01*
X0099079Y0022760D01*
X0099152Y0022697D01*
X0099223Y0022631D01*
X0099291Y0022562D01*
X0099357Y0022490D01*
X0099419Y0022416D01*
X0099478Y0022339D01*
X0099534Y0022260D01*
X0099587Y0022178D01*
X0099637Y0022095D01*
X0099682Y0022009D01*
X0099725Y0021922D01*
X0099764Y0021833D01*
X0099799Y0021743D01*
X0099830Y0021651D01*
X0099857Y0021558D01*
X0099881Y0021464D01*
X0099901Y0021369D01*
X0099917Y0021273D01*
X0099929Y0021177D01*
X0099937Y0021080D01*
X0099941Y0020983D01*
X0099941Y0020887D01*
X0099937Y0020790D01*
X0099929Y0020693D01*
X0099917Y0020597D01*
X0099901Y0020501D01*
X0099881Y0020406D01*
X0099857Y0020312D01*
X0099830Y0020219D01*
X0099799Y0020127D01*
X0099764Y0020037D01*
X0099725Y0019948D01*
X0099682Y0019861D01*
X0099637Y0019775D01*
X0099587Y0019692D01*
X0099534Y0019610D01*
X0099478Y0019531D01*
X0099419Y0019454D01*
X0099357Y0019380D01*
X0099291Y0019308D01*
X0099223Y0019239D01*
X0099152Y0019173D01*
X0099079Y0019110D01*
X0099002Y0019050D01*
X0098924Y0018993D01*
X0098843Y0018940D01*
X0098760Y0018889D01*
X0098675Y0018843D01*
X0098588Y0018799D01*
X0098500Y0018760D01*
X0098410Y0018724D01*
X0098318Y0018692D01*
X0098225Y0018663D01*
X0098132Y0018639D01*
X0098037Y0018618D01*
X0097941Y0018601D01*
X0097845Y0018588D01*
X0097749Y0018579D01*
X0097652Y0018574D01*
X0097555Y0018573D01*
X0097458Y0018576D01*
X0097361Y0018583D01*
X0097265Y0018594D01*
X0097169Y0018609D01*
X0097074Y0018628D01*
X0096979Y0018650D01*
X0096886Y0018677D01*
X0096794Y0018707D01*
X0096703Y0018741D01*
X0096614Y0018779D01*
X0096526Y0018821D01*
X0096440Y0018866D01*
X0096356Y0018914D01*
X0096274Y0018966D01*
X0096195Y0019021D01*
X0096117Y0019080D01*
X0096042Y0019141D01*
X0095970Y0019206D01*
X0095900Y0019273D01*
X0095833Y0019344D01*
X0095770Y0019417D01*
X0095709Y0019492D01*
X0095651Y0019570D01*
X0095597Y0019651D01*
X0095546Y0019733D01*
X0095498Y0019818D01*
X0095454Y0019904D01*
X0095413Y0019992D01*
X0095377Y0020082D01*
X0095343Y0020173D01*
X0095314Y0020265D01*
X0095288Y0020359D01*
X0095267Y0020453D01*
X0095249Y0020549D01*
X0095235Y0020645D01*
X0095225Y0020741D01*
X0095219Y0020838D01*
X0095217Y0020935D01*
M02*
